#N canvas 0 0 450 300 10;
#X obj 456 139 s rjuforward;
#X obj 592 136 s rjuback;
#X obj 713 140 s rjuup;
#X obj 837 141 s rjudown;
#X obj 152 208 r pgm2chnl;
#X text 173 248 X;
#X text 174 283 Y;
#X text 174 317 Z;
#X obj 396 213 r pgm2chnl;
#X text 417 253 X;
#X text 418 288 Y;
#X text 418 322 Z;
#X obj 647 215 r pgm2chnl;
#X text 668 255 X;
#X text 669 290 Y;
#X text 669 324 Z;
#X obj 886 216 r pgm2chnl;
#X text 907 256 X;
#X text 908 291 Y;
#X text 908 325 Z;
#X obj -8 252 ctlout 53;
#X obj 52 251 ctlout 54;
#X obj 109 251 ctlout 55;
#X obj -7 283 ctlout 56;
#X obj 52 283 ctlout 57;
#X obj 109 283 ctlout 58;
#X obj -8 316 ctlout 59;
#X obj 52 316 ctlout 60;
#X obj 109 316 ctlout 61;
#X obj 237 256 ctlout 62;
#X obj 296 256 ctlout 63;
#X obj 353 256 ctlout 64;
#X obj 236 287 ctlout 65;
#X obj 296 288 ctlout 66;
#X obj 353 288 ctlout 67;
#X obj 240 320 ctlout 68;
#X obj 296 321 ctlout 691;
#X obj 353 321 ctlout 70;
#X obj 491 257 ctlout 71;
#X obj 547 258 ctlout 72;
#X obj 604 258 ctlout 73;
#X obj 491 289 ctlout 74;
#X obj 547 290 ctlout 75;
#X obj 604 290 ctlout 76;
#X obj 491 322 ctlout 77;
#X obj 547 323 ctlout 78;
#X obj 604 323 ctlout 79;
#X obj 730 258 ctlout 82;
#X obj 786 259 ctlout 83;
#X obj 843 259 ctlout 84;
#X obj 727 291 ctlout 85;
#X obj 786 291 ctlout 86;
#X obj 843 291 ctlout 87;
#X obj 727 325 ctlout 88;
#X obj 786 324 ctlout 89;
#X obj 843 324 ctlout 90;
#X text 972 275 LEFT;
#X obj 173 390 r pgm2chnl;
#X text 194 430 X;
#X text 195 465 Y;
#X text 195 499 Z;
#X obj 406 395 r pgm2chnl;
#X text 427 435 X;
#X text 428 470 Y;
#X text 428 504 Z;
#X obj 656 397 r pgm2chnl;
#X text 677 437 X;
#X text 678 472 Y;
#X text 678 506 Z;
#X obj 898 400 r pgm2chnl;
#X text 927 440 X;
#X text 927 475 Y;
#X text 928 510 Z;
#X obj 36 370 xlrmtrmatrixr forward;
#X obj -5 433 ctlout 29;
#X obj 73 433 ctlout 30;
#X obj 153 433 ctlout 32;
#X obj -4 464 ctlout 33;
#X obj 73 465 ctlout 34;
#X obj 153 465 ctlout 35;
#X obj -5 497 ctlout 36;
#X obj 73 498 ctlout 37;
#X obj 153 498 ctlout 38;
#X obj 238 438 ctlout 39;
#X obj 306 438 ctlout 40;
#X obj 384 438 ctlout 41;
#X obj 237 469 ctlout 42;
#X obj 306 470 ctlout 43;
#X obj 384 470 ctlout 44;
#X obj 241 502 ctlout 45;
#X obj 306 503 ctlout 46;
#X obj 384 503 ctlout 47;
#X obj 500 439 ctlout 48;
#X obj 556 440 ctlout 49;
#X obj 613 440 ctlout 91;
#X obj 500 471 ctlout 92;
#X obj 556 472 ctlout 93;
#X obj 613 472 ctlout 94;
#X obj 500 504 ctlout 95;
#X obj 556 505 ctlout 96;
#X obj 613 505 ctlout 97;
#X obj 742 442 ctlout 98;
#X obj 798 443 ctlout 99;
#X obj 855 443 ctlout 104;
#X obj 731 474 ctlout 105;
#X obj 798 475 ctlout 106;
#X obj 861 475 ctlout 107;
#X obj 731 509 ctlout 108;
#X obj 798 508 ctlout 109;
#X obj 864 508 ctlout 118;
#X text 968 477 RIGHT;
#X obj 405 90 tgl 15 0 empty empty empty 17 7 0 10 -262144 -1 -1 0
1;
#X obj 405 62 sel 0 1;
#X obj 539 90 tgl 15 0 empty empty empty 17 7 0 10 -262144 -1 -1 0
1;
#X obj 539 62 sel 0 1;
#X obj 660 90 tgl 15 0 empty empty empty 17 7 0 10 -262144 -1 -1 0
1;
#X obj 657 60 sel 0 1;
#X obj 774 95 tgl 15 0 empty empty empty 17 7 0 10 -262144 -1 -1 0
1;
#X msg 805 94 1;
#X msg 778 164 0;
#X msg 661 159 0;
#X msg 540 159 0;
#X msg 406 159 0;
#X obj 57 169 s led60;
#X obj 200 167 s led61;
#X obj 103 169 s led62;
#X obj 150 169 s led63;
#X obj 405 12 inlet;
#X obj 539 12 inlet;
#X obj 657 10 inlet;
#X obj 774 17 inlet;
#X obj 126 111 tgl 15 0 empty empty empty 17 7 0 10 -262144 -1 -1 0
1;
#X obj 159 125 tgl 15 0 empty empty empty 17 7 0 10 -262144 -1 -1 0
1;
#X obj 145 142 tgl 15 0 empty empty empty 17 7 0 10 -262144 -1 -1 0
1;
#X obj 110 128 tgl 15 0 empty empty empty 17 7 0 10 -262144 -1 -1 0
1;
#X msg 686 89 1;
#X msg 565 91 1;
#X msg 431 89 1;
#X obj 774 67 sel 0 1;
#X floatatom 356 73 5 0 0 0 - - -;
#X floatatom 490 71 5 0 0 0 - - -;
#X floatatom 611 72 5 0 0 0 - - -;
#X floatatom 730 80 5 0 0 0 - - -;
#X obj 832 171 print;
#N canvas 319 87 236 193 bk 0;
#X obj 99 39 tgl 15 0 empty empty empty 17 7 0 10 -262144 -1 -1 0 3
;
#X obj 88 113 tgl 15 0 empty empty empty 17 7 0 10 -262144 -1 -1 0
1;
#X obj 62 44 * 3;
#X floatatom 27 51 5 0 0 0 - - -;
#X floatatom 98 139 5 0 0 0 - - -;
#X obj 59 9 inlet;
#X obj 91 164 outlet;
#X obj 42 81 threshold 2 1 1 2;
#X connect 1 0 6 0;
#X connect 1 0 4 0;
#X connect 2 0 0 0;
#X connect 2 0 3 0;
#X connect 2 0 7 0;
#X connect 5 0 2 0;
#X connect 7 0 1 0;
#X connect 7 1 1 0;
#X restore 405 34 pd bk;
#N canvas 319 87 236 193 bk 0;
#X obj 99 39 tgl 15 0 empty empty empty 17 7 0 10 -262144 -1 -1 0 3
;
#X obj 88 113 tgl 15 0 empty empty empty 17 7 0 10 -262144 -1 -1 0
1;
#X obj 62 44 * 3;
#X floatatom 27 51 5 0 0 0 - - -;
#X floatatom 98 139 5 0 0 0 - - -;
#X obj 59 9 inlet;
#X obj 91 164 outlet;
#X obj 42 81 threshold 2 1 1 2;
#X connect 1 0 6 0;
#X connect 1 0 4 0;
#X connect 2 0 0 0;
#X connect 2 0 3 0;
#X connect 2 0 7 0;
#X connect 5 0 2 0;
#X connect 7 0 1 0;
#X connect 7 1 1 0;
#X restore 543 37 pd bk;
#N canvas 319 87 236 193 bk 0;
#X obj 99 39 tgl 15 0 empty empty empty 17 7 0 10 -262144 -1 -1 0 3
;
#X obj 88 113 tgl 15 0 empty empty empty 17 7 0 10 -262144 -1 -1 0
1;
#X obj 62 44 * 3;
#X floatatom 27 51 5 0 0 0 - - -;
#X floatatom 98 139 5 0 0 0 - - -;
#X obj 59 9 inlet;
#X obj 91 164 outlet;
#X obj 42 81 threshold 2 1 1 2;
#X connect 1 0 6 0;
#X connect 1 0 4 0;
#X connect 2 0 0 0;
#X connect 2 0 3 0;
#X connect 2 0 7 0;
#X connect 5 0 2 0;
#X connect 7 0 1 0;
#X connect 7 1 1 0;
#X restore 657 35 pd bk;
#N canvas 319 87 236 193 bk 0;
#X obj 99 39 tgl 15 0 empty empty empty 17 7 0 10 -262144 -1 -1 0 3
;
#X obj 88 113 tgl 15 0 empty empty empty 17 7 0 10 -262144 -1 -1 0
1;
#X obj 62 44 * 3;
#X floatatom 27 51 5 0 0 0 - - -;
#X floatatom 98 139 5 0 0 0 - - -;
#X obj 59 9 inlet;
#X obj 91 164 outlet;
#X obj 42 81 threshold 2 1 1 2;
#X connect 1 0 6 0;
#X connect 1 0 4 0;
#X connect 2 0 0 0;
#X connect 2 0 3 0;
#X connect 2 0 7 0;
#X connect 5 0 2 0;
#X connect 7 0 1 0;
#X connect 7 1 1 0;
#X restore 776 42 pd bk;
#X obj 259 193 xlrmtrmatrix back;
#X obj 749 196 xlrmtrmatrix down;
#X obj 15 188 xlrmtrmatrix forward;
#X obj 510 195 xlrmtrmatrix up;
#X obj 269 375 xlrmtrmatrixr back;
#X obj 519 377 xlrmtrmatrixr up;
#X obj 761 380 xlrmtrmatrixr down;
#X obj 860 83 hradio 15 1 0 8 empty empty empty 0 -8 0 10 -262144 -1
-1 0;
#X connect 4 0 20 2;
#X connect 4 0 21 2;
#X connect 4 0 22 2;
#X connect 4 0 23 2;
#X connect 4 0 24 2;
#X connect 4 0 25 2;
#X connect 4 0 26 2;
#X connect 4 0 27 2;
#X connect 4 0 28 2;
#X connect 8 0 29 2;
#X connect 8 0 30 2;
#X connect 8 0 31 2;
#X connect 8 0 32 2;
#X connect 8 0 33 2;
#X connect 8 0 34 2;
#X connect 8 0 35 2;
#X connect 8 0 36 2;
#X connect 8 0 37 2;
#X connect 12 0 38 2;
#X connect 12 0 39 2;
#X connect 12 0 40 2;
#X connect 12 0 41 2;
#X connect 12 0 42 2;
#X connect 12 0 43 2;
#X connect 12 0 44 2;
#X connect 12 0 45 2;
#X connect 12 0 46 2;
#X connect 16 0 47 2;
#X connect 16 0 48 2;
#X connect 16 0 49 2;
#X connect 16 0 50 2;
#X connect 16 0 51 2;
#X connect 16 0 52 2;
#X connect 16 0 53 2;
#X connect 16 0 54 2;
#X connect 16 0 55 2;
#X connect 57 0 74 2;
#X connect 57 0 75 2;
#X connect 57 0 76 2;
#X connect 57 0 77 2;
#X connect 57 0 78 2;
#X connect 57 0 79 2;
#X connect 57 0 80 2;
#X connect 57 0 81 2;
#X connect 57 0 82 2;
#X connect 61 0 83 2;
#X connect 61 0 84 2;
#X connect 61 0 85 2;
#X connect 61 0 86 2;
#X connect 61 0 87 2;
#X connect 61 0 88 2;
#X connect 61 0 89 2;
#X connect 61 0 90 2;
#X connect 61 0 91 2;
#X connect 65 0 92 2;
#X connect 65 0 93 2;
#X connect 65 0 94 2;
#X connect 65 0 95 2;
#X connect 65 0 96 2;
#X connect 65 0 97 2;
#X connect 65 0 98 2;
#X connect 65 0 99 2;
#X connect 65 0 100 2;
#X connect 69 0 101 2;
#X connect 69 0 102 2;
#X connect 69 0 103 2;
#X connect 69 0 104 2;
#X connect 69 0 105 2;
#X connect 69 0 106 2;
#X connect 69 0 107 2;
#X connect 69 0 108 2;
#X connect 69 0 109 2;
#X connect 73 0 74 0;
#X connect 73 1 75 0;
#X connect 73 2 76 0;
#X connect 73 3 77 0;
#X connect 73 4 78 0;
#X connect 73 5 79 0;
#X connect 73 6 80 0;
#X connect 73 7 81 0;
#X connect 73 8 82 0;
#X connect 111 0 0 0;
#X connect 111 0 139 0;
#X connect 111 0 134 0;
#X connect 112 0 111 0;
#X connect 112 1 137 0;
#X connect 113 0 1 0;
#X connect 113 0 131 0;
#X connect 113 0 140 0;
#X connect 114 0 113 0;
#X connect 114 1 136 0;
#X connect 115 0 2 0;
#X connect 115 0 133 0;
#X connect 115 0 141 0;
#X connect 116 0 115 0;
#X connect 116 1 135 0;
#X connect 117 0 3 0;
#X connect 117 0 132 0;
#X connect 117 0 142 0;
#X connect 117 0 143 0;
#X connect 118 0 119 0;
#X connect 119 0 115 0;
#X connect 119 0 113 0;
#X connect 119 0 111 0;
#X connect 120 0 111 0;
#X connect 120 0 113 0;
#X connect 120 0 117 0;
#X connect 121 0 111 0;
#X connect 121 0 115 0;
#X connect 121 0 117 0;
#X connect 122 0 113 0;
#X connect 122 0 115 0;
#X connect 122 0 117 0;
#X connect 127 0 144 0;
#X connect 128 0 145 0;
#X connect 129 0 146 0;
#X connect 130 0 147 0;
#X connect 131 0 124 0;
#X connect 131 0 151 0;
#X connect 131 0 153 0;
#X connect 132 0 126 0;
#X connect 132 0 148 0;
#X connect 132 0 152 0;
#X connect 133 0 125 0;
#X connect 133 0 149 0;
#X connect 133 0 154 0;
#X connect 134 0 73 0;
#X connect 134 0 123 0;
#X connect 134 0 150 0;
#X connect 135 0 120 0;
#X connect 136 0 121 0;
#X connect 137 0 122 0;
#X connect 138 0 117 0;
#X connect 138 1 118 0;
#X connect 144 0 112 0;
#X connect 145 0 114 0;
#X connect 146 0 116 0;
#X connect 147 0 138 0;
#X connect 148 0 29 0;
#X connect 148 1 30 0;
#X connect 148 2 31 0;
#X connect 148 3 32 0;
#X connect 148 4 33 0;
#X connect 148 5 34 0;
#X connect 148 6 35 0;
#X connect 148 7 36 0;
#X connect 148 8 37 0;
#X connect 149 0 47 0;
#X connect 149 1 48 0;
#X connect 149 2 49 0;
#X connect 149 3 50 0;
#X connect 149 4 51 0;
#X connect 149 5 52 0;
#X connect 149 6 53 0;
#X connect 149 7 54 0;
#X connect 149 8 55 0;
#X connect 150 0 20 0;
#X connect 150 1 21 0;
#X connect 150 2 22 0;
#X connect 150 3 23 0;
#X connect 150 4 24 0;
#X connect 150 5 25 0;
#X connect 150 6 26 0;
#X connect 150 7 27 0;
#X connect 150 8 28 0;
#X connect 151 0 38 0;
#X connect 151 1 39 0;
#X connect 151 2 40 0;
#X connect 151 3 41 0;
#X connect 151 4 42 0;
#X connect 151 5 43 0;
#X connect 151 6 44 0;
#X connect 151 7 45 0;
#X connect 151 8 46 0;
#X connect 152 0 83 0;
#X connect 152 1 84 0;
#X connect 152 2 85 0;
#X connect 152 3 86 0;
#X connect 152 4 87 0;
#X connect 152 5 88 0;
#X connect 152 6 89 0;
#X connect 152 7 90 0;
#X connect 152 8 91 0;
#X connect 153 0 92 0;
#X connect 153 1 93 0;
#X connect 153 2 94 0;
#X connect 153 3 95 0;
#X connect 153 4 96 0;
#X connect 153 5 97 0;
#X connect 153 6 98 0;
#X connect 153 7 99 0;
#X connect 153 8 100 0;
#X connect 154 0 101 0;
#X connect 154 1 102 0;
#X connect 154 2 103 0;
#X connect 154 3 104 0;
#X connect 154 4 105 0;
#X connect 154 5 106 0;
#X connect 154 6 107 0;
#X connect 154 7 108 0;
#X connect 154 8 109 0;
