#N canvas 67 51 679 491 10;
#X obj 123 108 change;
#X obj 81 108 change;
#X obj 39 108 change;
#X obj -3 108 change;
#X msg 123 127 1;
#X obj 386 107 change;
#X obj 470 107 change;
#X obj 428 107 change;
#X obj 514 105 change;
#N canvas 594 421 450 300 element 0;
#X obj 139 43 inlet;
#X obj 169 103 vsl 15 128 0 1 0 0 empty empty empty 0 -9 0 10 -262144
-1 -1 0 1;
#X obj 131 101 vsl 15 128 0 1 0 0 empty empty empty 0 -9 0 10 -262144
-1 -1 0 1;
#X obj 204 104 vsl 15 128 0 1 0 0 empty empty empty 0 -9 0 10 -262144
-1 -1 0 1;
#X obj 132 259 s r;
#X obj 167 259 s g;
#X obj 205 259 s b;
#X floatatom 175 238 5 0 0 0 - - -;
#X floatatom 215 239 5 0 0 0 - - -;
#X floatatom 139 237 5 0 0 0 - - -;
#X msg 119 76 1;
#X msg 156 72 0;
#X msg 191 71 0;
#X connect 0 0 10 0;
#X connect 0 0 11 0;
#X connect 0 0 12 0;
#X connect 1 0 5 0;
#X connect 1 0 7 0;
#X connect 2 0 4 0;
#X connect 2 0 9 0;
#X connect 3 0 6 0;
#X connect 3 0 8 0;
#X connect 10 0 4 0;
#X connect 11 0 5 0;
#X connect 12 0 6 0;
#X restore 123 163 pd element color;
#N canvas 594 421 450 300 element 0;
#X obj 139 43 inlet;
#X obj 169 103 vsl 15 128 0 1 0 0 empty empty empty 0 -9 0 10 -262144
-1 -1 0 1;
#X obj 131 101 vsl 15 128 0 1 0 0 empty empty empty 0 -9 0 10 -262144
-1 -1 0 1;
#X obj 204 104 vsl 15 128 0 1 0 0 empty empty empty 0 -9 0 10 -262144
-1 -1 0 1;
#X obj 132 259 s r;
#X obj 167 259 s g;
#X obj 205 259 s b;
#X floatatom 175 238 5 0 0 0 - - -;
#X floatatom 215 239 5 0 0 0 - - -;
#X floatatom 139 237 5 0 0 0 - - -;
#X msg 191 71 0;
#X msg 119 76 0;
#X msg 156 72 1;
#X connect 0 0 11 0;
#X connect 0 0 12 0;
#X connect 0 0 10 0;
#X connect 1 0 5 0;
#X connect 1 0 7 0;
#X connect 2 0 4 0;
#X connect 2 0 9 0;
#X connect 3 0 6 0;
#X connect 3 0 8 0;
#X connect 10 0 6 0;
#X connect 11 0 4 0;
#X connect 12 0 5 0;
#X restore 37 212 pd element color;
#N canvas 594 421 450 300 element 0;
#X obj 139 43 inlet;
#X obj 169 103 vsl 15 128 0 1 0 0 empty empty empty 0 -9 0 10 -262144
-1 -1 0 1;
#X obj 131 101 vsl 15 128 0 1 0 0 empty empty empty 0 -9 0 10 -262144
-1 -1 0 1;
#X obj 204 104 vsl 15 128 0 1 0 0 empty empty empty 0 -9 0 10 -262144
-1 -1 0 1;
#X obj 132 259 s r;
#X obj 167 259 s g;
#X obj 205 259 s b;
#X floatatom 175 238 5 0 0 0 - - -;
#X floatatom 215 239 5 0 0 0 - - -;
#X floatatom 139 237 5 0 0 0 - - -;
#X msg 156 72 0;
#X msg 119 76 0;
#X msg 191 71 1;
#X connect 0 0 11 0;
#X connect 0 0 10 0;
#X connect 0 0 12 0;
#X connect 1 0 5 0;
#X connect 1 0 7 0;
#X connect 2 0 4 0;
#X connect 2 0 9 0;
#X connect 3 0 6 0;
#X connect 3 0 8 0;
#X connect 10 0 5 0;
#X connect 11 0 4 0;
#X connect 12 0 6 0;
#X restore 76 188 pd element color;
#N canvas 594 421 450 300 element 0;
#X obj 139 43 inlet;
#X obj 169 103 vsl 15 128 0 1 0 0 empty empty empty 0 -9 0 10 -262144
-1 -1 0 1;
#X obj 131 101 vsl 15 128 0 1 0 0 empty empty empty 0 -9 0 10 -262144
-1 -1 0 1;
#X obj 204 104 vsl 15 128 0 1 0 0 empty empty empty 0 -9 0 10 -262144
-1 -1 0 1;
#X obj 132 259 s r;
#X obj 167 259 s g;
#X obj 205 259 s b;
#X floatatom 175 238 5 0 0 0 - - -;
#X floatatom 215 239 5 0 0 0 - - -;
#X floatatom 139 237 5 0 0 0 - - -;
#X msg 119 76 1;
#X msg 191 71 0;
#X msg 152 71 0.35;
#X connect 0 0 10 0;
#X connect 0 0 12 0;
#X connect 0 0 11 0;
#X connect 1 0 5 0;
#X connect 1 0 7 0;
#X connect 2 0 4 0;
#X connect 2 0 9 0;
#X connect 3 0 6 0;
#X connect 3 0 8 0;
#X connect 10 0 4 0;
#X connect 11 0 6 0;
#X connect 12 0 5 0;
#X restore -4 156 pd element color;
#N canvas 594 421 450 300 element 0;
#X obj 139 43 inlet;
#X obj 169 103 vsl 15 128 0 1 0 0 empty empty empty 0 -9 0 10 -262144
-1 -1 0 1;
#X obj 131 101 vsl 15 128 0 1 0 0 empty empty empty 0 -9 0 10 -262144
-1 -1 0 1;
#X obj 204 104 vsl 15 128 0 1 0 0 empty empty empty 0 -9 0 10 -262144
-1 -1 0 1;
#X obj 132 259 s r;
#X obj 167 259 s g;
#X obj 205 259 s b;
#X floatatom 175 238 5 0 0 0 - - -;
#X floatatom 215 239 5 0 0 0 - - -;
#X floatatom 139 237 5 0 0 0 - - -;
#X msg 119 76 1;
#X msg 156 72 0;
#X msg 191 71 0.566;
#X connect 0 0 10 0;
#X connect 0 0 11 0;
#X connect 0 0 12 0;
#X connect 1 0 5 0;
#X connect 1 0 7 0;
#X connect 2 0 4 0;
#X connect 2 0 9 0;
#X connect 3 0 6 0;
#X connect 3 0 8 0;
#X connect 10 0 4 0;
#X connect 11 0 5 0;
#X connect 12 0 6 0;
#X restore 386 155 pd element color;
#X msg 81 127 2;
#X msg 39 127 3;
#X msg -3 127 4;
#X msg 386 126 5;
#X msg 428 126 6;
#X msg 470 127 7;
#X msg 512 125 8;
#X obj 287 211 s pgmout;
#X obj 386 87 > 0.85;
#X obj 513 86 > 0.9;
#X obj 469 87 > 0.85;
#X obj 428 87 > 0.87;
#X obj 231 211 pgmout 9;
#X obj 40 28 inlet;
#X obj 77 28 inlet;
#X obj 114 28 inlet;
#X obj 151 28 inlet;
#X obj 374 25 inlet;
#X obj 411 25 inlet;
#X obj 448 25 inlet;
#X obj 485 25 inlet;
#X obj -11 88 > 0.85;
#X obj 37 88 > 0.85;
#X obj 85 88 > 0.87;
#X obj 131 88 > 0.87;
#X text 201 46 change these to calibrate the pressure that it takes
to change patches.;
#X text 168 129 <---;
#X text 345 127 --->;
#N canvas 594 421 450 300 element 0;
#X obj 139 43 inlet;
#X obj 169 103 vsl 15 128 0 1 0 0 empty empty empty 0 -9 0 10 -262144
-1 -1 0 1;
#X obj 131 101 vsl 15 128 0 1 0 0 empty empty empty 0 -9 0 10 -262144
-1 -1 0 1;
#X obj 204 104 vsl 15 128 0 1 0 0 empty empty empty 0 -9 0 10 -262144
-1 -1 0 1;
#X obj 132 259 s r;
#X obj 167 259 s g;
#X obj 205 259 s b;
#X floatatom 175 238 5 0 0 0 - - -;
#X floatatom 215 239 5 0 0 0 - - -;
#X floatatom 139 237 5 0 0 0 - - -;
#X msg 119 76 1;
#X msg 156 72 0;
#X msg 191 71 0.566;
#X connect 0 0 10 0;
#X connect 0 0 11 0;
#X connect 0 0 12 0;
#X connect 1 0 5 0;
#X connect 1 0 7 0;
#X connect 2 0 4 0;
#X connect 2 0 9 0;
#X connect 3 0 6 0;
#X connect 3 0 8 0;
#X connect 10 0 4 0;
#X connect 11 0 5 0;
#X connect 12 0 6 0;
#X restore 428 221 pd element color;
#N canvas 802 266 450 300 element 0;
#X obj 139 43 inlet;
#X obj 169 103 vsl 15 128 0 1 0 0 empty empty empty 0 -9 0 10 -262144
-1 -1 0 1;
#X obj 135 103 vsl 15 128 0 1 0 0 empty empty empty 0 -9 0 10 -262144
-1 -1 0 1;
#X obj 204 104 vsl 15 128 0 1 0 0 empty empty empty 0 -9 0 10 -262144
-1 -1 0 1;
#X obj 132 259 s r;
#X obj 167 259 s g;
#X obj 205 259 s b;
#X floatatom 175 238 5 0 0 0 - - -;
#X floatatom 215 239 5 0 0 0 - - -;
#X floatatom 139 237 5 0 0 0 - - -;
#X msg 91 74 1;
#X msg 156 72 0.5;
#X msg 191 71 0.51;
#X connect 0 0 10 0;
#X connect 0 0 11 0;
#X connect 0 0 12 0;
#X connect 1 0 5 0;
#X connect 1 0 7 0;
#X connect 2 0 4 0;
#X connect 2 0 9 0;
#X connect 3 0 6 0;
#X connect 3 0 8 0;
#X connect 10 0 4 0;
#X connect 11 0 5 0;
#X connect 12 0 6 0;
#X restore 471 198 pd element color;
#N canvas 594 421 450 300 element 0;
#X obj 139 43 inlet;
#X obj 169 103 vsl 15 128 0 1 0 0 empty empty empty 0 -9 0 10 -262144
-1 -1 0 1;
#X obj 131 101 vsl 15 128 0 1 0 0 empty empty empty 0 -9 0 10 -262144
-1 -1 0 1;
#X obj 204 104 vsl 15 128 0 1 0 0 empty empty empty 0 -9 0 10 -262144
-1 -1 0 1;
#X obj 132 259 s r;
#X obj 167 259 s g;
#X obj 205 259 s b;
#X floatatom 175 238 5 0 0 0 - - -;
#X floatatom 215 239 5 0 0 0 - - -;
#X floatatom 139 237 5 0 0 0 - - -;
#X msg 119 76 1;
#X msg 156 72 0;
#X msg 191 71 0.566;
#X connect 0 0 10 0;
#X connect 0 0 11 0;
#X connect 0 0 12 0;
#X connect 1 0 5 0;
#X connect 1 0 7 0;
#X connect 2 0 4 0;
#X connect 2 0 9 0;
#X connect 3 0 6 0;
#X connect 3 0 8 0;
#X connect 10 0 4 0;
#X connect 11 0 5 0;
#X connect 12 0 6 0;
#X restore 514 174 pd element color;
#X text 33 229 each of these has a simple rgb color editor for the
LEDs;
#N canvas 311 233 541 300 program 1;
#X obj 37 33 inlet;
#X msg 57 88 4;
#X obj 37 88 tgl 15 0 empty empty empty 17 7 0 10 -262144 -1 -1 0 1
;
#X obj 37 60 sel 0 1;
#X obj 86 35 inlet;
#X obj 86 90 tgl 15 0 empty empty empty 17 7 0 10 -262144 -1 -1 0 1
;
#X obj 86 62 sel 0 1;
#X obj 138 35 inlet;
#X obj 138 90 tgl 15 0 empty empty empty 17 7 0 10 -262144 -1 -1 0
1;
#X obj 138 62 sel 0 1;
#X obj 187 37 inlet;
#X obj 187 92 tgl 15 0 empty empty empty 17 7 0 10 -262144 -1 -1 0
1;
#X obj 187 64 sel 0 1;
#X obj 278 37 inlet;
#X obj 271 90 tgl 15 0 empty empty empty 17 7 0 10 -262144 -1 -1 0
1;
#X obj 271 62 sel 0 1;
#X obj 320 37 inlet;
#X obj 320 92 tgl 15 0 empty empty empty 17 7 0 10 -262144 -1 -1 0
1;
#X obj 320 64 sel 0 1;
#X obj 372 37 inlet;
#X obj 372 92 tgl 15 0 empty empty empty 17 7 0 10 -262144 -1 -1 0
1;
#X obj 372 64 sel 0 1;
#X obj 421 39 inlet;
#X obj 421 94 tgl 15 0 empty empty empty 17 7 0 10 -262144 -1 -1 0
1;
#X obj 421 66 sel 0 1;
#X msg 207 92 1;
#X msg 158 90 2;
#X msg 106 90 3;
#X msg 441 94 5;
#X msg 392 92 6;
#X msg 340 92 7;
#X msg 291 90 8;
#X obj 190 139 s led1;
#X obj 426 136 s led5;
#X obj 366 136 s led6;
#X obj 319 135 s led7;
#X obj 265 134 s led8;
#X obj 142 137 s led2;
#X obj 88 136 s led3;
#X obj 39 137 s led4;
#X msg 191 161 0;
#X msg 142 161 0;
#X msg 87 159 0;
#X msg 38 157 0;
#X msg 420 167 0;
#X msg 371 167 0;
#X msg 316 165 0;
#X msg 267 163 0;
#X connect 0 0 3 0;
#X connect 1 0 39 0;
#X connect 1 0 43 0;
#X connect 2 0 39 0;
#X connect 3 0 2 0;
#X connect 3 1 1 0;
#X connect 4 0 6 0;
#X connect 5 0 38 0;
#X connect 6 0 5 0;
#X connect 6 1 27 0;
#X connect 7 0 9 0;
#X connect 8 0 37 0;
#X connect 9 0 8 0;
#X connect 9 1 26 0;
#X connect 10 0 12 0;
#X connect 11 0 32 0;
#X connect 12 0 11 0;
#X connect 12 1 25 0;
#X connect 13 0 15 0;
#X connect 14 0 36 0;
#X connect 15 0 14 0;
#X connect 15 1 31 0;
#X connect 16 0 18 0;
#X connect 17 0 35 0;
#X connect 18 0 17 0;
#X connect 18 1 30 0;
#X connect 19 0 21 0;
#X connect 20 0 34 0;
#X connect 21 0 20 0;
#X connect 21 1 29 0;
#X connect 22 0 24 0;
#X connect 23 0 33 0;
#X connect 24 0 23 0;
#X connect 24 1 28 0;
#X connect 25 0 32 0;
#X connect 25 0 40 0;
#X connect 26 0 37 0;
#X connect 26 0 41 0;
#X connect 27 0 38 0;
#X connect 27 0 42 0;
#X connect 28 0 33 0;
#X connect 28 0 44 0;
#X connect 29 0 34 0;
#X connect 29 0 45 0;
#X connect 30 0 35 0;
#X connect 30 0 46 0;
#X connect 31 0 36 0;
#X connect 31 0 47 0;
#X connect 40 0 23 0;
#X connect 40 0 20 0;
#X connect 40 0 17 0;
#X connect 40 0 14 0;
#X connect 40 0 8 0;
#X connect 40 0 5 0;
#X connect 40 0 2 0;
#X connect 41 0 2 0;
#X connect 41 0 5 0;
#X connect 41 0 11 0;
#X connect 41 0 14 0;
#X connect 41 0 17 0;
#X connect 41 0 20 0;
#X connect 41 0 23 0;
#X connect 42 0 2 0;
#X connect 42 0 8 0;
#X connect 42 0 11 0;
#X connect 42 0 14 0;
#X connect 42 0 17 0;
#X connect 42 0 20 0;
#X connect 42 0 23 0;
#X connect 43 0 5 0;
#X connect 43 0 8 0;
#X connect 43 0 11 0;
#X connect 43 0 14 0;
#X connect 43 0 17 0;
#X connect 43 0 20 0;
#X connect 43 0 23 0;
#X connect 44 0 20 0;
#X connect 44 0 17 0;
#X connect 44 0 14 0;
#X connect 44 0 11 0;
#X connect 44 0 8 0;
#X connect 44 0 5 0;
#X connect 44 0 2 0;
#X connect 45 0 23 0;
#X connect 45 0 17 0;
#X connect 45 0 14 0;
#X connect 45 0 11 0;
#X connect 45 0 8 0;
#X connect 45 0 5 0;
#X connect 45 0 2 0;
#X connect 46 0 20 0;
#X connect 46 0 23 0;
#X connect 46 0 14 0;
#X connect 46 0 11 0;
#X connect 46 0 8 0;
#X connect 46 0 5 0;
#X connect 46 0 2 0;
#X connect 47 0 2 0;
#X connect 47 0 5 0;
#X connect 47 0 8 0;
#X connect 47 0 11 0;
#X connect 47 0 17 0;
#X connect 47 0 20 0;
#X connect 47 0 23 0;
#X restore 216 185 pd program display;
#X obj 217 402 tgl 15 0 empty empty empty 17 7 0 10 -262144 -1 -1 0
1;
#X obj 233 402 tgl 15 0 empty empty empty 17 7 0 10 -262144 -1 -1 0
1;
#X obj 249 402 tgl 15 0 empty empty empty 17 7 0 10 -262144 -1 -1 0
1;
#X obj 319 402 tgl 15 0 empty empty empty 17 7 0 10 -262144 -1 -1 0
1;
#X obj 303 402 tgl 15 0 empty empty empty 17 7 0 10 -262144 -1 -1 0
1;
#X obj 287 402 tgl 15 0 empty empty empty 17 7 0 10 -262144 -1 -1 0
1;
#X obj 272 402 tgl 15 0 empty empty empty 17 7 0 10 -262144 -1 -1 0
1;
#X obj 201 402 tgl 15 0 empty empty empty 17 7 0 10 -262144 -1 -1 0
1;
#X obj 80 372 r led4;
#X obj 121 372 r led3;
#X obj 162 372 r led2;
#X obj 204 372 r led1;
#X obj 298 369 r led8;
#X obj 339 369 r led7;
#X obj 380 369 r led6;
#X obj 421 369 r led5;
#X text 204 400 1;
#X text 220 400 2;
#X text 235 400 3;
#X text 251 400 4;
#X text 274 400 5;
#X text 289 400 6;
#X text 306 401 7;
#X text 322 400 8;
#X text 175 108 these can be changed to whatever program change number
you like;
#X connect 0 0 4 0;
#X connect 0 0 9 0;
#X connect 0 0 46 3;
#X connect 1 0 14 0;
#X connect 1 0 11 0;
#X connect 1 0 46 2;
#X connect 2 0 15 0;
#X connect 2 0 10 0;
#X connect 2 0 46 1;
#X connect 3 0 16 0;
#X connect 3 0 46 0;
#X connect 4 0 21 0;
#X connect 4 0 26 0;
#X connect 5 0 17 0;
#X connect 5 0 13 0;
#X connect 5 0 46 4;
#X connect 6 0 19 0;
#X connect 6 0 43 0;
#X connect 6 0 46 6;
#X connect 7 0 18 0;
#X connect 7 0 42 0;
#X connect 7 0 46 5;
#X connect 8 0 20 0;
#X connect 8 0 44 0;
#X connect 8 0 46 7;
#X connect 14 0 21 0;
#X connect 14 0 26 0;
#X connect 15 0 21 0;
#X connect 15 0 26 0;
#X connect 16 0 12 0;
#X connect 16 0 21 0;
#X connect 16 0 26 0;
#X connect 17 0 21 0;
#X connect 17 0 26 0;
#X connect 18 0 21 0;
#X connect 18 0 26 0;
#X connect 19 0 21 0;
#X connect 19 0 26 0;
#X connect 20 0 21 0;
#X connect 20 0 26 0;
#X connect 22 0 5 0;
#X connect 23 0 8 0;
#X connect 24 0 6 0;
#X connect 25 0 7 0;
#X connect 27 0 35 0;
#X connect 28 0 36 0;
#X connect 29 0 37 0;
#X connect 30 0 38 0;
#X connect 31 0 22 0;
#X connect 32 0 25 0;
#X connect 33 0 24 0;
#X connect 34 0 23 0;
#X connect 35 0 3 0;
#X connect 36 0 2 0;
#X connect 37 0 1 0;
#X connect 38 0 0 0;
#X connect 55 0 54 0;
#X connect 56 0 47 0;
#X connect 57 0 48 0;
#X connect 58 0 49 0;
#X connect 59 0 53 0;
#X connect 60 0 52 0;
#X connect 61 0 51 0;
#X connect 62 0 50 0;
#X coords 0 -1 1 1 135 20 1 200 400;
