#N canvas 0 7 1024 714 10;
#N canvas 70 90 954 678 bits2nume 0;
#X obj 412 163 t b f;
#X obj 377 168 +;
#X obj 354 191 t b f;
#X obj 341 217 +;
#X obj 313 241 t b f;
#X obj 289 266 +;
#X obj 259 290 t b f;
#X obj 247 316 +;
#X obj 220 339 t b f;
#X obj 206 371 +;
#X obj 174 396 t b f;
#X obj 153 419 +;
#X obj 125 440 t b f;
#X obj 118 473 +;
#X obj 439 80 * 128;
#X obj 390 80 * 64;
#X obj 341 80 * 32;
#X obj 292 80 * 16;
#X obj 243 80 * 8;
#X obj 194 80 * 4;
#X obj 145 80 * 2;
#X obj 95 18 inlet;
#X obj 144 18 inlet;
#X obj 193 20 inlet;
#X obj 244 21 inlet;
#X obj 293 21 inlet;
#X obj 347 21 inlet;
#X obj 391 21 inlet;
#X obj 440 21 inlet;
#X obj 120 125 tgl 30 0 empty empty empty 17 7 0 10 -4034 -1 -1 0 1
;
#X text 98 603 C#-0 C -2 B -1 A#-17 A -3 G#-15 G -7 F#-39 F -23 E -55
D#-119 D -247;
#X floatatom 460 106 5 0 0 0 - - -;
#X obj 152 125 tgl 30 0 empty empty empty 17 7 0 10 -4034 -1 -1 0 2
;
#X obj 185 125 tgl 30 0 empty empty empty 17 7 0 10 -4034 -1 -1 0 4
;
#X obj 219 106 tgl 30 0 empty empty empty 17 7 0 10 -4034 -1 -1 0 8
;
#X obj 309 103 tgl 30 0 empty empty empty 17 7 0 10 -4034 -1 -1 0 16
;
#X obj 342 103 tgl 30 0 empty empty empty 17 7 0 10 -4034 -1 -1 0 32
;
#X obj 374 103 tgl 30 0 empty empty empty 17 7 0 10 -4034 -1 -1 0 64
;
#X obj 407 125 tgl 30 0 empty empty empty 17 7 0 10 -4034 -1 -1 0 128
;
#X floatatom 72 486 5 0 0 0 - - -;
#N canvas 0 62 600 363 boehm 0;
#X obj 178 -1 inlet;
#X obj 87 123 bng 15 250 50 0 empty empty empty 17 7 0 10 -262144 -1
-1;
#X obj 124 124 bng 15 250 50 0 empty empty empty 17 7 0 10 -262144
-1 -1;
#X obj 140 203 print;
#X obj 89 202 noteout;
#X obj 81 97 sel 0 1;
#X text 218 -1 need to sustitute 59 turn this into a $ variable;
#X obj 83 70 == 59;
#X msg 75 153 59 0;
#X msg 140 151 59 64;
#X obj 198 126 bng 15 250 50 0 empty empty empty 17 7 0 10 -262144
-1 -1;
#X obj 235 127 bng 15 250 50 0 empty empty empty 17 7 0 10 -262144
-1 -1;
#X obj 248 199 print;
#X obj 193 201 noteout;
#X obj 192 100 sel 0 1;
#X obj 306 122 bng 15 250 50 0 empty empty empty 17 7 0 10 -262144
-1 -1;
#X obj 343 123 bng 15 250 50 0 empty empty empty 17 7 0 10 -262144
-1 -1;
#X obj 359 202 print;
#X obj 308 201 noteout;
#X obj 300 96 sel 0 1;
#X obj 417 125 bng 15 250 50 0 empty empty empty 17 7 0 10 -262144
-1 -1;
#X obj 454 126 bng 15 250 50 0 empty empty empty 17 7 0 10 -262144
-1 -1;
#X obj 467 198 print;
#X obj 412 200 noteout;
#X obj 411 99 sel 0 1;
#X obj 523 120 bng 15 250 50 0 empty empty empty 17 7 0 10 -262144
-1 -1;
#X obj 560 121 bng 15 250 50 0 empty empty empty 17 7 0 10 -262144
-1 -1;
#X obj 576 200 print;
#X obj 525 199 noteout;
#X obj 517 94 sel 0 1;
#X obj 634 123 bng 15 250 50 0 empty empty empty 17 7 0 10 -262144
-1 -1;
#X obj 671 124 bng 15 250 50 0 empty empty empty 17 7 0 10 -262144
-1 -1;
#X obj 684 196 print;
#X obj 629 198 noteout;
#X obj 628 97 sel 0 1;
#X obj 742 119 bng 15 250 50 0 empty empty empty 17 7 0 10 -262144
-1 -1;
#X obj 779 120 bng 15 250 50 0 empty empty empty 17 7 0 10 -262144
-1 -1;
#X obj 795 199 print;
#X obj 744 198 noteout;
#X obj 736 93 sel 0 1;
#X obj 853 122 bng 15 250 50 0 empty empty empty 17 7 0 10 -262144
-1 -1;
#X obj 890 123 bng 15 250 50 0 empty empty empty 17 7 0 10 -262144
-1 -1;
#X obj 903 195 print;
#X obj 848 197 noteout;
#X obj 847 96 sel 0 1;
#X obj 80 281 bng 15 250 50 0 empty empty empty 17 7 0 10 -262144 -1
-1;
#X obj 117 282 bng 15 250 50 0 empty empty empty 17 7 0 10 -262144
-1 -1;
#X obj 133 361 print;
#X obj 82 360 noteout;
#X obj 74 255 sel 0 1;
#X obj 191 284 bng 15 250 50 0 empty empty empty 17 7 0 10 -262144
-1 -1;
#X obj 228 285 bng 15 250 50 0 empty empty empty 17 7 0 10 -262144
-1 -1;
#X obj 241 357 print;
#X obj 186 359 noteout;
#X obj 185 258 sel 0 1;
#X obj 299 280 bng 15 250 50 0 empty empty empty 17 7 0 10 -262144
-1 -1;
#X obj 336 281 bng 15 250 50 0 empty empty empty 17 7 0 10 -262144
-1 -1;
#X obj 352 360 print;
#X obj 301 359 noteout;
#X obj 293 254 sel 0 1;
#X obj 410 283 bng 15 250 50 0 empty empty empty 17 7 0 10 -262144
-1 -1;
#X obj 447 284 bng 15 250 50 0 empty empty empty 17 7 0 10 -262144
-1 -1;
#X obj 460 356 print;
#X obj 405 358 noteout;
#X obj 404 257 sel 0 1;
#X obj 404 227 == 70;
#X msg 398 313 70 0;
#X msg 463 311 70 64;
#X obj 192 70 == 60;
#X obj 302 69 == 61;
#X obj 411 69 == 62;
#X obj 519 67 == 63;
#X obj 628 67 == 64;
#X obj 738 66 == 65;
#X obj 847 66 == 66;
#X obj 76 228 == 67;
#X obj 185 228 == 68;
#X obj 295 227 == 69;
#X msg 186 156 60 0;
#X msg 251 154 60 64;
#X msg 294 152 61 0;
#X msg 358 150 61 64;
#X msg 405 155 62 0;
#X msg 470 153 62 64;
#X msg 511 150 63 0;
#X msg 576 148 63 64;
#X msg 622 153 64 0;
#X msg 687 151 64 64;
#X msg 730 149 65 0;
#X msg 795 147 65 64;
#X msg 841 152 66 0;
#X msg 906 150 66 64;
#X msg 68 311 67 0;
#X msg 133 309 67 64;
#X msg 179 314 68 0;
#X msg 244 312 68 64;
#X msg 287 310 69 0;
#X msg 352 308 69 64;
#X connect 0 0 7 0;
#X connect 0 0 68 0;
#X connect 0 0 69 0;
#X connect 0 0 70 0;
#X connect 0 0 71 0;
#X connect 0 0 72 0;
#X connect 0 0 73 0;
#X connect 0 0 74 0;
#X connect 0 0 75 0;
#X connect 0 0 76 0;
#X connect 0 0 77 0;
#X connect 0 0 65 0;
#X connect 1 0 8 0;
#X connect 2 0 9 0;
#X connect 5 0 1 0;
#X connect 5 1 2 0;
#X connect 7 0 5 0;
#X connect 8 0 3 0;
#X connect 8 0 4 0;
#X connect 9 0 3 0;
#X connect 9 0 4 0;
#X connect 10 0 78 0;
#X connect 11 0 79 0;
#X connect 14 0 10 0;
#X connect 14 1 11 0;
#X connect 15 0 80 0;
#X connect 16 0 81 0;
#X connect 19 0 15 0;
#X connect 19 1 16 0;
#X connect 20 0 82 0;
#X connect 21 0 83 0;
#X connect 24 0 20 0;
#X connect 24 1 21 0;
#X connect 25 0 84 0;
#X connect 26 0 85 0;
#X connect 29 0 25 0;
#X connect 29 1 26 0;
#X connect 30 0 86 0;
#X connect 31 0 87 0;
#X connect 34 0 30 0;
#X connect 34 1 31 0;
#X connect 35 0 88 0;
#X connect 36 0 89 0;
#X connect 39 0 35 0;
#X connect 39 1 36 0;
#X connect 40 0 90 0;
#X connect 41 0 91 0;
#X connect 44 0 40 0;
#X connect 44 1 41 0;
#X connect 45 0 92 0;
#X connect 46 0 93 0;
#X connect 49 0 45 0;
#X connect 49 1 46 0;
#X connect 50 0 94 0;
#X connect 51 0 95 0;
#X connect 54 0 50 0;
#X connect 54 1 51 0;
#X connect 55 0 96 0;
#X connect 56 0 97 0;
#X connect 59 0 55 0;
#X connect 59 1 56 0;
#X connect 60 0 66 0;
#X connect 61 0 67 0;
#X connect 64 0 60 0;
#X connect 64 1 61 0;
#X connect 65 0 64 0;
#X connect 66 0 62 0;
#X connect 66 0 63 0;
#X connect 67 0 62 0;
#X connect 67 0 63 0;
#X connect 68 0 14 0;
#X connect 69 0 19 0;
#X connect 70 0 24 0;
#X connect 71 0 29 0;
#X connect 72 0 34 0;
#X connect 73 0 39 0;
#X connect 74 0 44 0;
#X connect 75 0 49 0;
#X connect 76 0 54 0;
#X connect 77 0 59 0;
#X connect 78 0 12 0;
#X connect 78 0 13 0;
#X connect 79 0 12 0;
#X connect 79 0 13 0;
#X connect 80 0 17 0;
#X connect 80 0 18 0;
#X connect 81 0 17 0;
#X connect 81 0 18 0;
#X connect 82 0 22 0;
#X connect 82 0 23 0;
#X connect 83 0 22 0;
#X connect 83 0 23 0;
#X connect 84 0 27 0;
#X connect 84 0 28 0;
#X connect 85 0 27 0;
#X connect 85 0 28 0;
#X connect 86 0 32 0;
#X connect 86 0 33 0;
#X connect 87 0 32 0;
#X connect 87 0 33 0;
#X connect 88 0 37 0;
#X connect 88 0 38 0;
#X connect 89 0 37 0;
#X connect 89 0 38 0;
#X connect 90 0 42 0;
#X connect 90 0 43 0;
#X connect 91 0 42 0;
#X connect 91 0 43 0;
#X connect 92 0 47 0;
#X connect 92 0 48 0;
#X connect 93 0 47 0;
#X connect 93 0 48 0;
#X connect 94 0 52 0;
#X connect 94 0 53 0;
#X connect 95 0 52 0;
#X connect 95 0 53 0;
#X connect 96 0 57 0;
#X connect 96 0 58 0;
#X connect 97 0 57 0;
#X connect 97 0 58 0;
#X restore 43 614 pd boehm;
#X obj 727 411 outlet;
#X text 123 108 Left;
#X text 406 107 Right;
#X msg 394 482 64;
#X msg 435 481 63;
#X msg 471 482 62;
#X msg 503 482 61;
#X msg 155 505 60;
#X msg 191 505 59;
#X msg 227 506 58;
#X msg 259 504 57;
#X msg 294 506 56;
#X msg 330 506 55;
#X msg 366 507 54;
#X msg 398 507 53;
#X msg 350 483 65;
#X msg 317 484 66;
#X msg 284 483 67;
#X msg 254 483 68;
#X msg 224 483 69;
#X msg 191 483 70;
#X msg 160 484 71;
#X text 38 630 for historical purposes;
#X floatatom 727 391 5 0 0 0 - - -;
#X msg 472 506 51;
#X msg 836 210 12;
#X msg 912 208 24;
#X obj 724 361 +;
#X floatatom 729 167 5 0 0 0 - - -;
#X msg 676 208 -12;
#X msg 743 211 0;
#X obj 639 100 r tf;
#X obj 803 104 r tb;
#X obj 800 151 sel 0 1;
#X obj 876 154 sel 0 1;
#N canvas 0 0 473 300 accelerometer 0;
#X obj -16 61 * 1024;
#X floatatom 47 41 5 0 0 0 - - -;
#X floatatom 69 67 5 0 0 0 - - -;
#X obj 2 137 bng 15 250 50 0 empty empty empty 17 7 0 10 -262144 -1
-1;
#X obj 54 119 delay 10;
#X obj 54 140 bng 15 250 50 0 empty empty empty 17 7 0 10 -262144 -1
-1;
#X obj 133 119 delay 10;
#X obj 133 139 bng 15 250 50 0 empty empty empty 17 7 0 10 -262144
-1 -1;
#X obj -111 123 delay 10;
#X obj -75 145 bng 15 250 50 0 empty empty empty 17 7 0 10 -262144
-1 -1;
#X obj -201 120 delay 10;
#X obj -166 140 bng 15 250 50 0 empty empty empty 17 7 0 10 -262144
-1 -1;
#X obj -32 98 split 500 599;
#X obj 54 99 split 600 699;
#X obj 144 99 split 700 799;
#X obj -221 100 split 399 300;
#X obj -123 99 split 499 400;
#X connect 0 0 1 0;
#X connect 0 0 12 0;
#X connect 0 0 13 0;
#X connect 0 0 14 0;
#X connect 0 0 15 0;
#X connect 0 0 16 0;
#X connect 4 0 5 0;
#X connect 6 0 7 0;
#X connect 8 0 9 0;
#X connect 10 0 11 0;
#X connect 12 0 2 0;
#X connect 12 0 3 0;
#X connect 13 0 4 0;
#X connect 14 0 6 0;
#X connect 15 0 10 0;
#X connect 16 0 8 0;
#X restore 198 631 pd accelerometer patch change;
#X text 691 104 octave changer;
#N canvas 203 82 236 193 bk 0;
#X obj 99 39 tgl 15 0 empty empty empty 17 7 0 10 -262144 -1 -1 0 3
;
#X obj 88 113 tgl 15 0 empty empty empty 17 7 0 10 -262144 -1 -1 0
1;
#X obj 62 44 * 3;
#X floatatom 27 51 5 0 0 0 - - -;
#X floatatom 98 139 5 0 0 0 - - -;
#X obj 59 9 inlet;
#X obj 91 164 outlet;
#X obj 42 81 threshold 2 1 1 2;
#X connect 1 0 4 0;
#X connect 2 0 0 0;
#X connect 2 0 3 0;
#X connect 2 0 7 0;
#X connect 4 0 6 0;
#X connect 5 0 2 0;
#X connect 7 0 1 0;
#X connect 7 1 1 0;
#X restore 98 46 pd bk;
#N canvas 141 94 236 193 bk 0;
#X obj 99 39 tgl 15 0 empty empty empty 17 7 0 10 -262144 -1 -1 0 3
;
#X obj 88 113 tgl 15 0 empty empty empty 17 7 0 10 -262144 -1 -1 0
1;
#X obj 62 44 * 3;
#X floatatom 27 51 5 0 0 0 - - -;
#X floatatom 98 139 5 0 0 0 - - -;
#X obj 59 9 inlet;
#X obj 91 164 outlet;
#X obj 42 81 threshold 2 1 1 2;
#X connect 1 0 6 0;
#X connect 1 0 4 0;
#X connect 2 0 0 0;
#X connect 2 0 3 0;
#X connect 2 0 7 0;
#X connect 5 0 2 0;
#X connect 7 0 1 0;
#X connect 7 1 1 0;
#X restore 144 45 pd bk;
#N canvas 319 87 236 193 bk 0;
#X obj 99 39 tgl 15 0 empty empty empty 17 7 0 10 -262144 -1 -1 0 3
;
#X obj 88 113 tgl 15 0 empty empty empty 17 7 0 10 -262144 -1 -1 0
1;
#X obj 62 44 * 3;
#X floatatom 27 51 5 0 0 0 - - -;
#X floatatom 98 139 5 0 0 0 - - -;
#X obj 59 9 inlet;
#X obj 91 164 outlet;
#X obj 42 81 threshold 2 1 1 2;
#X connect 1 0 4 0;
#X connect 2 0 0 0;
#X connect 2 0 3 0;
#X connect 2 0 7 0;
#X connect 4 0 6 0;
#X connect 5 0 2 0;
#X connect 7 0 1 0;
#X connect 7 1 1 0;
#X restore 189 47 pd bk;
#N canvas 319 87 236 193 bk 0;
#X obj 99 39 tgl 15 0 empty empty empty 17 7 0 10 -262144 -1 -1 0 3
;
#X obj 88 113 tgl 15 0 empty empty empty 17 7 0 10 -262144 -1 -1 0
1;
#X floatatom 27 51 5 0 0 0 - - -;
#X floatatom 98 139 5 0 0 0 - - -;
#X obj 59 9 inlet;
#X obj 91 164 outlet;
#X obj 62 44 * 3;
#X obj 42 81 threshold 3 1 1 2;
#X connect 1 0 5 0;
#X connect 1 0 3 0;
#X connect 4 0 6 0;
#X connect 6 0 0 0;
#X connect 6 0 2 0;
#X connect 6 0 7 0;
#X connect 7 0 1 0;
#X connect 7 1 1 0;
#X restore 243 50 pd bk;
#N canvas 203 82 236 193 bk 0;
#X obj 99 39 tgl 15 0 empty empty empty 17 7 0 10 -262144 -1 -1 0 3
;
#X obj 88 113 tgl 15 0 empty empty empty 17 7 0 10 -262144 -1 -1 0
1;
#X obj 62 44 * 3;
#X floatatom 27 51 5 0 0 0 - - -;
#X floatatom 98 139 5 0 0 0 - - -;
#X obj 59 9 inlet;
#X obj 91 164 outlet;
#X obj 42 81 threshold 2 1 1 2;
#X connect 1 0 4 0;
#X connect 2 0 0 0;
#X connect 2 0 3 0;
#X connect 2 0 7 0;
#X connect 4 0 6 0;
#X connect 5 0 2 0;
#X connect 7 0 1 0;
#X connect 7 1 1 0;
#X restore 294 49 pd bk;
#N canvas 141 94 236 193 bk 0;
#X obj 99 39 tgl 15 0 empty empty empty 17 7 0 10 -262144 -1 -1 0 3
;
#X obj 88 113 tgl 15 0 empty empty empty 17 7 0 10 -262144 -1 -1 0
1;
#X obj 62 44 * 3;
#X floatatom 27 51 5 0 0 0 - - -;
#X floatatom 98 139 5 0 0 0 - - -;
#X obj 59 9 inlet;
#X obj 91 164 outlet;
#X obj 42 81 threshold 2 1 1 2;
#X connect 1 0 6 0;
#X connect 1 0 4 0;
#X connect 2 0 0 0;
#X connect 2 0 3 0;
#X connect 2 0 7 0;
#X connect 5 0 2 0;
#X connect 7 0 1 0;
#X connect 7 1 1 0;
#X restore 344 50 pd bk;
#N canvas 319 87 236 193 bk 0;
#X obj 99 39 tgl 15 0 empty empty empty 17 7 0 10 -262144 -1 -1 0 3
;
#X obj 88 113 tgl 15 0 empty empty empty 17 7 0 10 -262144 -1 -1 0
1;
#X obj 62 44 * 3;
#X floatatom 27 51 5 0 0 0 - - -;
#X floatatom 98 139 5 0 0 0 - - -;
#X obj 59 9 inlet;
#X obj 91 164 outlet;
#X obj 42 81 threshold 2 1 1 2;
#X connect 1 0 4 0;
#X connect 2 0 0 0;
#X connect 2 0 3 0;
#X connect 2 0 7 0;
#X connect 4 0 6 0;
#X connect 5 0 2 0;
#X connect 7 0 1 0;
#X connect 7 1 1 0;
#X restore 391 51 pd bk;
#N canvas 319 87 236 193 bk 0;
#X obj 99 39 tgl 15 0 empty empty empty 17 7 0 10 -262144 -1 -1 0 3
;
#X obj 88 113 tgl 15 0 empty empty empty 17 7 0 10 -262144 -1 -1 0
1;
#X obj 62 44 * 3;
#X floatatom 27 51 5 0 0 0 - - -;
#X floatatom 98 139 5 0 0 0 - - -;
#X obj 59 9 inlet;
#X obj 91 164 outlet;
#X obj 42 81 threshold 2 1 1 2;
#X connect 1 0 6 0;
#X connect 1 0 4 0;
#X connect 2 0 0 0;
#X connect 2 0 3 0;
#X connect 2 0 7 0;
#X connect 5 0 2 0;
#X connect 7 0 1 0;
#X connect 7 1 1 0;
#X restore 447 46 pd bk;
#X text 414 575 comment;
#X obj 803 227 bng 15 250 50 0 empty empty empty 17 7 0 10 -262144
-1 -1;
#X obj 819 211 bng 15 250 50 0 empty empty empty 17 7 0 10 -262144
-1 -1;
#X obj 895 209 bng 15 250 50 0 empty empty empty 17 7 0 10 -262144
-1 -1;
#X obj 876 226 bng 15 250 50 0 empty empty empty 17 7 0 10 -262144
-1 -1;
#N canvas 319 87 236 193 bk 0;
#X obj 99 39 tgl 15 0 empty empty empty 17 7 0 10 -262144 -1 -1 0 3
;
#X obj 88 113 tgl 15 0 empty empty empty 17 7 0 10 -262144 -1 -1 0
1;
#X obj 62 44 * 3;
#X floatatom 27 51 5 0 0 0 - - -;
#X obj 42 81 threshold 3 2 1 2;
#X floatatom 98 139 5 0 0 0 - - -;
#X obj 59 9 inlet;
#X obj 91 164 outlet;
#X connect 1 0 7 0;
#X connect 1 0 5 0;
#X connect 2 0 0 0;
#X connect 2 0 3 0;
#X connect 2 0 4 0;
#X connect 4 0 1 0;
#X connect 4 1 1 0;
#X connect 6 0 2 0;
#X restore 805 124 pd bk;
#N canvas 319 87 236 193 bk 0;
#X obj 99 39 tgl 15 0 empty empty empty 17 7 0 10 -262144 -1 -1 0 3
;
#X obj 88 113 tgl 15 0 empty empty empty 17 7 0 10 -262144 -1 -1 0
1;
#X obj 62 44 * 3;
#X floatatom 27 51 5 0 0 0 - - -;
#X obj 42 81 threshold 3 2 1 2;
#X floatatom 98 139 5 0 0 0 - - -;
#X obj 59 9 inlet;
#X obj 91 164 outlet;
#X connect 1 0 7 0;
#X connect 1 0 5 0;
#X connect 2 0 0 0;
#X connect 2 0 3 0;
#X connect 2 0 4 0;
#X connect 4 0 1 0;
#X connect 4 1 1 0;
#X connect 6 0 2 0;
#X restore 876 124 pd bk;
#X obj 558 100 r tb2;
#X obj 638 150 sel 0 1;
#X obj 642 227 bng 15 250 50 0 empty empty empty 17 7 0 10 -262144
-1 -1;
#X obj 658 210 bng 15 250 50 0 empty empty empty 17 7 0 10 -262144
-1 -1;
#N canvas 319 87 236 193 bk 0;
#X obj 99 39 tgl 15 0 empty empty empty 17 7 0 10 -262144 -1 -1 0 3
;
#X obj 88 113 tgl 15 0 empty empty empty 17 7 0 10 -262144 -1 -1 0
1;
#X obj 62 44 * 3;
#X floatatom 27 51 5 0 0 0 - - -;
#X obj 42 81 threshold 3 2 1 2;
#X floatatom 98 139 5 0 0 0 - - -;
#X obj 59 9 inlet;
#X obj 91 164 outlet;
#X connect 1 0 7 0;
#X connect 1 0 5 0;
#X connect 2 0 0 0;
#X connect 2 0 3 0;
#X connect 2 0 4 0;
#X connect 4 0 1 0;
#X connect 4 1 1 0;
#X connect 6 0 2 0;
#X restore 639 121 pd bk;
#X obj 261 125 tgl 15 0 empty empty empty 17 7 0 10 -262144 -1 -1 0
1;
#X obj 277 115 tgl 15 0 empty empty empty 17 7 0 10 -262144 -1 -1 0
1;
#X obj 262 102 tgl 15 0 empty empty empty 17 7 0 10 -262144 -1 -1 0
1;
#X obj 876 105 r up1;
#X obj 558 149 sel 0 1;
#X obj 558 223 bng 15 250 50 0 empty empty empty 17 7 0 10 -262144
-1 -1;
#X obj 577 208 bng 15 250 50 0 empty empty empty 17 7 0 10 -262144
-1 -1;
#N canvas 319 87 236 193 bk 0;
#X obj 99 39 tgl 15 0 empty empty empty 17 7 0 10 -262144 -1 -1 0 3
;
#X obj 88 113 tgl 15 0 empty empty empty 17 7 0 10 -262144 -1 -1 0
1;
#X obj 62 44 * 3;
#X floatatom 27 51 5 0 0 0 - - -;
#X obj 42 81 threshold 3 2 1 2;
#X floatatom 98 139 5 0 0 0 - - -;
#X obj 59 9 inlet;
#X obj 91 164 outlet;
#X connect 1 0 7 0;
#X connect 1 0 5 0;
#X connect 2 0 0 0;
#X connect 2 0 3 0;
#X connect 2 0 4 0;
#X connect 4 0 1 0;
#X connect 4 1 1 0;
#X connect 6 0 2 0;
#X restore 558 120 pd bk;
#X obj 248 141 tgl 15 0 empty empty empty 17 7 0 10 -262144 -1 -1 0
1;
#X msg 595 208 -24;
#X msg 434 507 50;
#X obj 581 324 vsl 15 12 0 12 0 0 empty empty empty 0 -9 0 10 -262144
-1 -1 0 1;
#X obj 656 438 int;
#X obj 664 481 +;
#X obj 583 373 s transpose;
#X msg 509 510 65;
#X msg 542 510 63;
#X msg 574 511 64;
#X msg 607 511 61;
#X msg 569 484 60;
#X obj 196 434 select 12 4 36 20 52 244 116 0 2 1 17 3 15 7 39 23 55
247 119 255 127 32 33 34 35 47 49;
#X msg 534 483 62;
#X obj 796 480 s note;
#X text 483 41 this stops the torrent of sensor data;
#X text 271 141 comment;
#X text 461 120 note#;
#X connect 0 0 1 0;
#X connect 0 1 1 1;
#X connect 1 0 2 0;
#X connect 2 0 3 0;
#X connect 2 1 3 1;
#X connect 3 0 4 0;
#X connect 4 0 5 0;
#X connect 4 1 5 1;
#X connect 5 0 6 0;
#X connect 6 0 7 0;
#X connect 6 1 7 1;
#X connect 7 0 8 0;
#X connect 8 0 9 0;
#X connect 8 1 9 1;
#X connect 9 0 10 0;
#X connect 10 0 11 0;
#X connect 10 1 11 1;
#X connect 11 0 12 0;
#X connect 12 0 13 0;
#X connect 12 1 13 1;
#X connect 13 0 39 0;
#X connect 13 0 118 0;
#X connect 14 0 38 0;
#X connect 15 0 37 0;
#X connect 16 0 36 0;
#X connect 17 0 35 0;
#X connect 18 0 34 0;
#X connect 19 0 33 0;
#X connect 20 0 32 0;
#X connect 21 0 78 0;
#X connect 22 0 79 0;
#X connect 23 0 80 0;
#X connect 24 0 81 0;
#X connect 25 0 82 0;
#X connect 26 0 83 0;
#X connect 27 0 84 0;
#X connect 28 0 85 0;
#X connect 29 0 13 0;
#X connect 31 0 111 0;
#X connect 32 0 11 0;
#X connect 33 0 9 0;
#X connect 34 0 7 0;
#X connect 35 0 5 0;
#X connect 36 0 3 0;
#X connect 37 0 1 0;
#X connect 38 0 0 0;
#X connect 44 0 31 0;
#X connect 45 0 31 0;
#X connect 46 0 31 0;
#X connect 47 0 31 0;
#X connect 48 0 31 0;
#X connect 49 0 31 0;
#X connect 50 0 31 0;
#X connect 51 0 31 0;
#X connect 52 0 31 0;
#X connect 53 0 31 0;
#X connect 54 0 31 0;
#X connect 55 0 31 0;
#X connect 56 0 31 0;
#X connect 57 0 31 0;
#X connect 58 0 31 0;
#X connect 59 0 31 0;
#X connect 60 0 31 0;
#X connect 61 0 31 0;
#X connect 62 0 31 0;
#X connect 64 0 41 0;
#X connect 65 0 31 0;
#X connect 66 0 68 1;
#X connect 67 0 68 1;
#X connect 68 0 64 0;
#X connect 68 0 120 0;
#X connect 69 0 68 0;
#X connect 70 0 68 1;
#X connect 71 0 68 1;
#X connect 72 0 97 0;
#X connect 73 0 91 0;
#X connect 74 0 71 0;
#X connect 74 0 87 0;
#X connect 74 1 66 0;
#X connect 74 1 88 0;
#X connect 75 0 71 0;
#X connect 75 0 90 0;
#X connect 75 1 67 0;
#X connect 75 1 89 0;
#X connect 78 0 29 0;
#X connect 79 0 20 0;
#X connect 80 0 19 0;
#X connect 81 0 18 0;
#X connect 82 0 17 0;
#X connect 83 0 16 0;
#X connect 84 0 15 0;
#X connect 85 0 14 0;
#X connect 87 0 68 0;
#X connect 88 0 68 0;
#X connect 89 0 68 0;
#X connect 90 0 68 0;
#X connect 91 0 99 0;
#X connect 92 0 100 0;
#X connect 93 0 105 0;
#X connect 94 0 71 0;
#X connect 94 0 95 0;
#X connect 94 1 70 0;
#X connect 94 1 96 0;
#X connect 95 0 68 0;
#X connect 96 0 68 0;
#X connect 97 0 98 0;
#X connect 98 0 94 0;
#X connect 99 0 74 0;
#X connect 100 0 75 0;
#X connect 101 0 92 0;
#X connect 102 0 103 0;
#X connect 102 0 71 0;
#X connect 102 1 107 0;
#X connect 102 1 104 0;
#X connect 103 0 68 0;
#X connect 104 0 68 0;
#X connect 105 0 106 0;
#X connect 106 0 102 0;
#X connect 107 0 68 1;
#X connect 108 0 31 0;
#X connect 109 0 110 0;
#X connect 109 0 112 0;
#X connect 110 0 111 1;
#X connect 111 0 69 0;
#X connect 113 0 31 0;
#X connect 114 0 31 0;
#X connect 115 0 31 0;
#X connect 116 0 31 0;
#X connect 117 0 31 0;
#X connect 118 0 62 0;
#X connect 118 1 61 0;
#X connect 118 2 60 0;
#X connect 118 3 59 0;
#X connect 118 4 58 0;
#X connect 118 5 57 0;
#X connect 118 6 56 0;
#X connect 118 7 44 0;
#X connect 118 8 45 0;
#X connect 118 9 46 0;
#X connect 118 10 47 0;
#X connect 118 11 48 0;
#X connect 118 12 49 0;
#X connect 118 13 50 0;
#X connect 118 14 51 0;
#X connect 118 15 52 0;
#X connect 118 16 53 0;
#X connect 118 17 54 0;
#X connect 118 18 55 0;
#X connect 118 19 108 0;
#X connect 118 20 65 0;
#X connect 118 21 113 0;
#X connect 118 22 114 0;
#X connect 118 23 115 0;
#X connect 118 24 116 0;
#X connect 118 25 117 0;
#X connect 118 26 119 0;
#X connect 119 0 31 0;
#X coords 0 -1 1 1 400 60 2 100 100;
#X restore 292 23 pd bits2nume;
#X obj 428 -4 beatjazzprograms;
#X obj 466 -189 beatjazzmouth;
#X obj 9 -190 beatjazzleft;
#X obj 545 -189 beatjazzright;
#X text 319 56 1;
#X text 350 55 2;
#X text 383 56 3;
#X text 417 35 4;
#X text 509 33 5;
#X text 541 33 6;
#X text 573 33 7;
#X text 605 56 8;
#X text 626 -156 UR;
#X text 593 -74 BR;
#X text 469 36 C3;
#X text 453 24 C4;
#X text 452 46 C2;
#X text 441 62 C1;
#X text 647 -155 1;
#X text 629 -173 2;
#X text 628 -140 3;
#X text 596 -159 4;
#X text 622 -73 1;
#X text 596 -99 2;
#X text 597 -47 3;
#X text 569 -73 4;
#X text 12 -16 port assignments: serial port3=mouth serial port4=lefthand
serial port5=righthand;
#X text 13 33 legend: "B"-bottom "U"-upper "L"-left "R"-right;
#X text 83 122 comment;
#X connect 3 0 0 0;
#X connect 3 0 1 1;
#X connect 3 1 0 1;
#X connect 3 1 1 1;
#X connect 3 2 0 2;
#X connect 3 2 1 2;
#X connect 3 3 0 3;
#X connect 3 3 1 3;
#X connect 4 0 0 4;
#X connect 4 0 1 4;
#X connect 4 1 0 5;
#X connect 4 1 1 5;
#X connect 4 2 0 6;
#X connect 4 2 1 6;
#X connect 4 3 0 7;
#X connect 4 3 1 7;
#X coords 0 -1 1 1 1000 300 2 5 -200;
