#N canvas 0 0 712 508 10;
#X obj 445 211 tgl 25 0 empty empty empty 17 7 0 10 -260097 -1 -1 0
1;
#X obj 496 210 tgl 25 0 empty empty empty 17 7 0 10 -260097 -1 -1 0
1;
#X obj 465 144 tgl 15 0 empty empty empty 17 7 0 10 -260097 -1 -1 0
1;
#X obj 448 126 tgl 15 0 empty empty empty 17 7 0 10 -4034 -1 -1 0 1
;
#X obj 359 109 vsl 30 128 0 1 0 0 empty empty empty 0 -9 0 10 -258113
-1 -1 0 1;
#X obj 391 110 vsl 30 128 0 1 0 0 empty empty empty 0 -9 0 10 -258113
-1 -1 0 1;
#X obj 327 109 vsl 30 128 0 1 0 0 empty empty empty 0 -9 0 10 -258113
-1 -1 0 1;
#X obj 295 109 vsl 30 128 0 1 0 0 empty empty empty 0 -9 0 10 -258113
-1 -1 0 1;
#X text 158 279 X;
#X obj 158 278 s yaxis;
#X obj 106 278 s xaxis;
#X obj 394 345 > 0.03;
#X obj 472 235 tgl 25 0 empty empty empty 17 7 0 10 -262144 -1 -1 0
1;
#X obj 471 184 tgl 25 0 empty empty empty 17 7 0 10 -262144 -1 -1 0
1;
#X obj 216 277 s zaxis;
#X obj 483 111 tgl 50 0 empty empty empty 17 7 0 10 -4034 -1 -1 0 1
;
#X floatatom 125 251 5 0 0 0 - - -;
#X floatatom 177 249 5 0 0 0 - - -;
#X floatatom 224 249 5 0 0 0 - - -;
#X obj 127 117 grid grid2 127 1 127 127 1 127 1 1 1 13 13 127 117;
#X obj 109 117 vsl 15 127 1 127 0 0 empty empty empty 0 -9 0 10 -260097
-1 -1 0 1;
#X obj 256 44 pack f f f;
#N canvas 423 201 450 300 accelerometer 0;
#X text 106 146 Accelerometer;
#X msg 51 164 goto \$1 \$2;
#X obj 51 145 pack 1 1;
#X obj 80 51 unpack f f f;
#X floatatom 52 78 5 0 0 0 - - -;
#X floatatom 110 77 5 0 0 0 - - -;
#X floatatom 149 76 5 0 0 0 - - -;
#N canvas 0 0 320 427 calibrate 0;
#X floatatom 85 130 5 0 0 0 - - -;
#X obj 103 174 spigot;
#X floatatom 124 211 5 0 0 0 - - -;
#X obj 142 130 tgl 15 0 empty empty empty 17 7 0 10 -262144 -1 -1 0
1;
#X obj 96 257 -;
#X floatatom 97 291 5 0 0 0 - - -;
#X obj 81 76 inlet;
#X obj 157 75 inlet;
#X obj 99 343 outlet;
#X connect 0 0 1 0;
#X connect 0 0 4 0;
#X connect 1 0 2 0;
#X connect 2 0 4 1;
#X connect 3 0 1 1;
#X connect 4 0 5 0;
#X connect 5 0 8 0;
#X connect 6 0 0 0;
#X connect 7 0 3 0;
#X restore 13 101 pd calibrate;
#N canvas 0 0 320 427 calibrate 0;
#X floatatom 85 130 5 0 0 0 - - -;
#X obj 103 174 spigot;
#X floatatom 124 211 5 0 0 0 - - -;
#X obj 142 130 tgl 15 0 empty empty empty 17 7 0 10 -262144 -1 -1 0
1;
#X obj 96 257 -;
#X floatatom 97 291 5 0 0 0 - - -;
#X obj 81 76 inlet;
#X obj 157 75 inlet;
#X obj 99 343 outlet;
#X connect 0 0 1 0;
#X connect 0 0 4 0;
#X connect 1 0 2 0;
#X connect 2 0 4 1;
#X connect 3 0 1 1;
#X connect 4 0 5 0;
#X connect 5 0 8 0;
#X connect 6 0 0 0;
#X connect 7 0 3 0;
#X restore 200 102 pd calibrate;
#N canvas 195 246 320 427 calibrate 0;
#X floatatom 85 130 5 0 0 0 - - -;
#X obj 103 174 spigot;
#X floatatom 124 211 5 0 0 0 - - -;
#X obj 142 130 tgl 15 0 empty empty empty 17 7 0 10 -262144 -1 -1 0
1;
#X obj 96 257 -;
#X floatatom 97 291 5 0 0 0 - - -;
#X obj 81 76 inlet;
#X obj 157 75 inlet;
#X obj 99 343 outlet;
#X connect 0 0 1 0;
#X connect 0 0 4 0;
#X connect 1 0 2 0;
#X connect 2 0 4 1;
#X connect 3 0 1 1;
#X connect 4 0 5 0;
#X connect 5 0 8 0;
#X connect 6 0 0 0;
#X connect 7 0 3 0;
#X restore 107 101 pd calibrate;
#X obj 220 123 tgl 15 0 empty empty empty 17 7 0 10 -262144 -1 -1 0
1;
#X obj 221 148 tgl 15 0 empty empty empty 17 7 0 10 -262144 -1 -1 0
1;
#X obj 221 171 tgl 15 0 empty empty empty 17 7 0 10 -262144 -1 -1 0
1;
#X text 212 184 calibration;
#X obj 53 126 * 127;
#X obj 104 127 * 127;
#X obj 80 27 inlet;
#X obj 51 190 outlet;
#X obj 156 196 outlet;
#X obj 117 244 - 127;
#X floatatom 170 274 5 0 0 0 - - -;
#X obj 151 127 * 127;
#X connect 1 0 17 0;
#X connect 2 0 1 0;
#X connect 3 0 4 0;
#X connect 3 1 5 0;
#X connect 3 2 6 0;
#X connect 4 0 7 0;
#X connect 5 0 9 0;
#X connect 6 0 8 0;
#X connect 7 0 14 0;
#X connect 8 0 21 0;
#X connect 9 0 15 0;
#X connect 10 0 7 1;
#X connect 11 0 9 1;
#X connect 12 0 8 1;
#X connect 14 0 2 0;
#X connect 15 0 2 1;
#X connect 16 0 3 0;
#X connect 19 0 20 0;
#X connect 21 0 18 0;
#X connect 21 0 19 0;
#X restore 251 69 pd accelerometer;
#X floatatom 362 243 5 0 0 0 - - -;
#X floatatom 328 243 5 0 0 0 - - -;
#X floatatom 295 243 5 0 0 0 - - -;
#X floatatom 395 242 5 0 0 0 - - -;
#X text 126 81 left hand joystick;
#X text 448 160 sustain;
#X obj 496 164 s lje;
#X obj 465 110 tgl 15 0 empty empty empty 17 7 0 10 -260097 -1 -1 0
1;
#X obj 480 345 > 0.03;
#X obj 522 346 > 0.03;
#X obj 437 345 > 0.05;
#X text 420 126 stop;
#X text 425 106 volume;
#N canvas 594 94 450 300 LJB 0;
#X obj 149 -36 s tf;
#X obj 118 -34 s tb;
#X obj 113 -54 s tb2;
#X obj 151 -55 s up1;
#X obj 153 52 s oup1;
#X obj 153 72 s oup2;
#X obj 97 52 s odown1;
#X obj 97 71 s odown2;
#X obj 132 -10 inlet;
#X obj 92 2 inlet;
#X obj 165 22 inlet;
#X obj 206 7 inlet;
#N canvas 176 280 968 468 xlrmtr 0;
#X floatatom -33 67 5 0 0 0 - - -;
#X floatatom 39 67 5 0 0 0 - - -;
#X floatatom 109 64 5 0 0 0 - - -;
#X text -37 94 ctl20;
#X text 34 97 ctl21;
#X text 108 95 ctl22;
#X text 15 84 Up/down tilt;
#X text -44 84 L/R Tilt;
#X text 105 84 top/bttm;
#X floatatom 626 167 5 0 0 0 - - -;
#X obj 659 246 t b b;
#X obj 649 291 f;
#X obj 653 321 + 1;
#X obj 482 403 tgl 15 0 empty empty empty 17 7 0 10 -262144 -1 -1 0
1;
#X obj 614 347 * 127;
#X floatatom 611 263 5 0 0 0 - - -;
#X msg 683 275 1;
#X obj 482 422 bng 15 250 50 0 empty empty empty 17 7 0 10 -262144
-1 -1;
#X obj -16 349 outlet;
#X obj 277 352 outlet;
#X obj 541 352 outlet;
#X obj 658 346 outlet;
#X text 207 351 Y;
#X text 477 351 Z;
#X text 621 361 Z flip switch;
#X text -96 350 X;
#X obj 664 145 moses 126;
#X obj 664 196 < 126;
#X obj 661 167 - 126;
#X obj -31 40 r xaxis;
#X obj 23 40 r yaxis;
#X obj 77 41 r zaxis;
#X floatatom 48 167 5 0 0 0 - - -;
#X obj 81 246 t b b;
#X obj 71 291 f;
#X obj 75 321 + 1;
#X obj 345 404 tgl 15 0 empty empty empty 17 7 0 10 -262144 -1 -1 0
1;
#X obj 36 347 * 127;
#X floatatom 33 263 5 0 0 0 - - -;
#X msg 105 275 1;
#X obj 346 421 bng 15 250 50 0 empty empty empty 17 7 0 10 -262144
-1 -1;
#X obj 86 145 moses 126;
#X obj 86 196 < 126;
#X obj 83 167 - 126;
#X floatatom 339 171 5 0 0 0 - - -;
#X obj 372 250 t b b;
#X obj 362 295 f;
#X obj 366 325 + 1;
#X obj 418 403 tgl 15 0 empty empty empty 17 7 0 10 -262144 -1 -1 1
1;
#X obj 327 351 * 127;
#X floatatom 324 267 5 0 0 0 - - -;
#X msg 396 279 1;
#X obj 418 421 bng 15 250 50 0 empty empty empty 17 7 0 10 -262144
-1 -1;
#X obj 377 149 moses 126;
#X obj 377 200 < 126;
#X obj 374 171 - 126;
#X obj 88 223 delay 150;
#X obj 379 227 delay 150;
#X obj 666 223 delay 150;
#X obj 384 352 outlet;
#X obj 101 350 outlet;
#X text 64 365 x flip switch;
#X text 350 367 y flip switch;
#X floatatom -106 221 5 0 0 0 - - -;
#X obj -106 243 - 1;
#X floatatom -106 266 5 0 0 0 - - -;
#X obj -106 193 clip 2 1;
#X floatatom -51 282 5 0 0 0 - - -;
#X obj -51 234 t b b;
#X obj -51 257 f;
#X obj 302 420 bng 15 250 50 0 empty empty empty 17 7 0 10 -262144
-1 -1;
#X obj -51 193 sel 1;
#X obj -51 214 delay 100;
#X obj 302 403 tgl 15 0 empty empty empty 17 7 0 10 -262144 -1 -1 1
1;
#X obj -80 329 * 127;
#X obj -80 351 outlet;
#X floatatom 198 220 5 0 0 0 - - -;
#X obj 198 242 - 1;
#X floatatom 198 265 5 0 0 0 - - -;
#X obj 198 191 clip 2 1;
#X floatatom 253 281 5 0 0 0 - - -;
#X obj 253 233 t b b;
#X obj 253 256 f;
#X obj 368 422 bng 15 250 50 0 empty empty empty 17 7 0 10 -262144
-1 -1;
#X obj 253 192 sel 1;
#X obj 253 213 delay 100;
#X obj 371 403 tgl 15 0 empty empty empty 17 7 0 10 -262144 -1 -1 0
1;
#X obj 224 328 * 127;
#X obj 224 350 outlet;
#X floatatom 468 221 5 0 0 0 - - -;
#X obj 468 243 - 1;
#X floatatom 468 266 5 0 0 0 - - -;
#X obj 468 192 clip 2 1;
#X floatatom 523 282 5 0 0 0 - - -;
#X obj 523 234 t b b;
#X obj 523 257 f;
#X obj 439 422 bng 15 250 50 0 empty empty empty 17 7 0 10 -262144
-1 -1;
#X obj 523 193 sel 1;
#X obj 523 214 delay 100;
#X obj 439 404 tgl 15 0 empty empty empty 17 7 0 10 -262144 -1 -1 0
1;
#X obj 494 329 * 127;
#X obj 494 351 outlet;
#X text -100 114 right hand joystick xlrmtr triggers;
#X obj 728 343 s led40;
#X obj 727 437 s led45;
#X obj 727 418 s led44;
#X obj 728 399 s led43;
#X obj 728 381 s led42;
#X obj 728 362 s led41;
#N canvas 0 0 303 384 rangex 0;
#X obj 106 72 clip 36 96;
#X floatatom 107 102 5 0 0 0 - - -;
#X obj 107 124 - 36;
#X floatatom 108 151 5 0 0 0 - - -;
#X floatatom 109 224 5 0 0 0 - - -;
#X obj 109 196 int;
#X obj 108 176 * 2.2;
#X obj 109 247 clip 0 127;
#X floatatom 112 280 5 0 0 0 - - -;
#X text 146 100 range multiplier;
#X obj 107 40 inlet;
#X obj 115 317 outlet;
#X connect 0 0 1 0;
#X connect 1 0 2 0;
#X connect 2 0 3 0;
#X connect 3 0 6 0;
#X connect 4 0 7 0;
#X connect 5 0 4 0;
#X connect 6 0 5 0;
#X connect 7 0 8 0;
#X connect 8 0 11 0;
#X connect 10 0 0 0;
#X restore -18 310 pd rangex;
#N canvas 0 0 303 384 rangex 0;
#X obj 106 72 clip 36 96;
#X floatatom 107 102 5 0 0 0 - - -;
#X obj 107 124 - 36;
#X floatatom 108 151 5 0 0 0 - - -;
#X floatatom 109 224 5 0 0 0 - - -;
#X obj 109 196 int;
#X obj 108 176 * 2.2;
#X obj 109 247 clip 0 127;
#X floatatom 112 280 5 0 0 0 - - -;
#X text 146 100 range multiplier;
#X obj 107 40 inlet;
#X obj 115 317 outlet;
#X connect 0 0 1 0;
#X connect 1 0 2 0;
#X connect 2 0 3 0;
#X connect 3 0 6 0;
#X connect 4 0 7 0;
#X connect 5 0 4 0;
#X connect 6 0 5 0;
#X connect 7 0 8 0;
#X connect 8 0 11 0;
#X connect 10 0 0 0;
#X restore 266 306 pd rangex;
#X obj 118 117 r rjuforward;
#X obj 285 124 s xpitchswitch;
#X connect 0 0 41 0;
#X connect 0 0 66 0;
#X connect 0 0 109 0;
#X connect 1 0 53 0;
#X connect 1 0 79 0;
#X connect 1 0 110 0;
#X connect 2 0 26 0;
#X connect 9 0 20 0;
#X connect 10 0 11 0;
#X connect 10 1 16 0;
#X connect 11 0 12 0;
#X connect 12 0 17 0;
#X connect 13 0 14 0;
#X connect 13 0 105 0;
#X connect 14 0 21 0;
#X connect 16 0 11 1;
#X connect 17 0 13 0;
#X connect 26 0 9 0;
#X connect 26 1 27 0;
#X connect 27 0 15 0;
#X connect 27 0 58 0;
#X connect 28 0 27 0;
#X connect 29 0 0 0;
#X connect 30 0 1 0;
#X connect 31 0 92 0;
#X connect 31 0 2 0;
#X connect 33 0 34 0;
#X connect 33 1 39 0;
#X connect 34 0 35 0;
#X connect 35 0 40 0;
#X connect 36 0 37 0;
#X connect 36 0 106 0;
#X connect 36 0 112 0;
#X connect 37 0 60 0;
#X connect 39 0 34 1;
#X connect 40 0 36 0;
#X connect 41 0 32 0;
#X connect 41 1 42 0;
#X connect 42 0 38 0;
#X connect 42 0 56 0;
#X connect 43 0 42 0;
#X connect 45 0 46 0;
#X connect 45 1 51 0;
#X connect 46 0 47 0;
#X connect 47 0 52 0;
#X connect 48 0 49 0;
#X connect 48 0 108 0;
#X connect 49 0 59 0;
#X connect 51 0 46 1;
#X connect 52 0 48 0;
#X connect 53 0 44 0;
#X connect 53 1 54 0;
#X connect 54 0 50 0;
#X connect 54 0 57 0;
#X connect 55 0 54 0;
#X connect 56 0 33 0;
#X connect 57 0 45 0;
#X connect 58 0 10 0;
#X connect 63 0 64 0;
#X connect 64 0 65 0;
#X connect 65 0 71 0;
#X connect 66 0 63 0;
#X connect 67 0 70 0;
#X connect 68 0 69 0;
#X connect 69 0 67 0;
#X connect 70 0 73 0;
#X connect 71 0 72 0;
#X connect 72 0 68 0;
#X connect 73 0 74 0;
#X connect 73 0 103 0;
#X connect 74 0 75 0;
#X connect 76 0 77 0;
#X connect 77 0 78 0;
#X connect 78 0 84 0;
#X connect 79 0 76 0;
#X connect 80 0 83 0;
#X connect 81 0 82 0;
#X connect 82 0 80 0;
#X connect 83 0 86 0;
#X connect 84 0 85 0;
#X connect 85 0 81 0;
#X connect 86 0 87 0;
#X connect 86 0 107 0;
#X connect 87 0 88 0;
#X connect 89 0 90 0;
#X connect 90 0 91 0;
#X connect 91 0 97 0;
#X connect 92 0 89 0;
#X connect 93 0 96 0;
#X connect 94 0 95 0;
#X connect 95 0 93 0;
#X connect 96 0 99 0;
#X connect 97 0 98 0;
#X connect 98 0 94 0;
#X connect 99 0 100 0;
#X connect 99 0 104 0;
#X connect 100 0 101 0;
#X connect 109 0 18 0;
#X connect 110 0 19 0;
#X coords 0 -1 1 1 200 40 2 300 400;
#X restore 41 120 pd xlrmtr l ctrl;
#X text 43 102 |---x---| |---y----| |---z---|;
#X obj 234 180 r pgm2chnl;
#X msg 123 180 100;
#X msg 149 180 101;
#X msg 177 180 102;
#X msg 205 180 103;
#X obj 124 210 ctlout;
#X text 120 158 lEFT-BASE(NOLATCH);
#X connect 8 0 3 0;
#X connect 8 0 5 0;
#X connect 9 0 0 0;
#X connect 9 0 7 0;
#X connect 10 0 2 0;
#X connect 10 0 6 0;
#X connect 11 0 1 0;
#X connect 11 0 4 0;
#X connect 12 1 19 0;
#X connect 12 1 15 0;
#X connect 12 4 19 0;
#X connect 12 4 16 0;
#X connect 12 7 19 0;
#X connect 12 7 17 0;
#X connect 12 8 19 0;
#X connect 12 8 18 0;
#X connect 14 0 19 2;
#X connect 15 0 19 1;
#X connect 16 0 19 1;
#X connect 17 0 19 1;
#X connect 18 0 19 1;
#X restore 561 257 pd LJB controlmatrix;
#N canvas 536 341 687 300 LJT 0;
#X msg 67 143 127 81 1;
#X obj 91 103 change;
#X msg 131 143 0 81 1;
#X obj 247 90 change;
#X msg 241 137 127 80 1;
#X msg 303 137 0 80 1;
#X obj 252 112 sel 1 0;
#X obj 91 122 sel 1 0;
#X obj 91 83 > 0.9;
#X obj 194 174 ctlout;
#X obj 255 35 inlet;
#X obj 92 28 inlet;
#X obj 141 31 inlet;
#X obj 197 30 inlet;
#X obj 29 165 outlet;
#N canvas 673 422 450 300 volume 0;
#X obj 78 -61 spigot;
#X floatatom 112 -80 1 0 0 0 - - -;
#N canvas 769 382 450 300 volume 0;
#X floatatom 197 42 5 0 0 0 - - -;
#X floatatom 203 171 5 0 0 0 - - -;
#X obj 203 141 int;
#X obj 205 193 clip 0 127;
#X obj 196 16 inlet;
#X obj 207 265 outlet;
#X obj 215 222 average 25;
#X floatatom 215 241 5 0 0 0 - - -;
#X connect 0 0 2 0;
#X connect 1 0 3 0;
#X connect 2 0 1 0;
#X connect 3 0 6 0;
#X connect 4 0 0 0;
#X connect 6 0 7 0;
#X connect 7 0 5 0;
#X restore 65 -102 pd volume;
#X obj 78 -40 ctlout 27;
#X obj 100 -142 inlet;
#X obj 152 -142 inlet;
#X floatatom 27 -41 5 0 0 0 - - -;
#X connect 0 0 3 0;
#X connect 0 0 6 0;
#X connect 1 0 0 1;
#X connect 2 0 0 0;
#X connect 4 0 2 0;
#X connect 5 0 1 0;
#X restore 148 103 pd volume main;
#X obj 148 80 r xaxis;
#X connect 0 0 9 0;
#X connect 1 0 7 0;
#X connect 1 0 14 0;
#X connect 2 0 9 0;
#X connect 3 0 6 0;
#X connect 4 0 9 0;
#X connect 5 0 9 0;
#X connect 6 0 4 0;
#X connect 6 1 5 0;
#X connect 7 0 0 0;
#X connect 7 1 2 0;
#X connect 8 0 1 0;
#X connect 10 0 3 0;
#X connect 11 0 8 0;
#X connect 13 0 15 1;
#X connect 16 0 15 0;
#X restore 558 110 pd LJT controlmatrix;
#X text 426 240 LEFT;
#X obj 394 372 outlet;
#X obj 437 372 outlet;
#X obj 483 371 outlet;
#X obj 526 371 outlet;
#X obj 387 25 bjcleft;
#X text 440 23 pin assignments for all sensors;
#X text 573 212 comment;
#X text 516 91 comment;
#X text 471 232;
#X text 481 242 comment;
#X connect 0 0 36 0;
#X connect 1 0 36 3;
#X connect 2 0 29 0;
#X connect 2 0 37 1;
#X connect 3 0 37 3;
#X connect 4 0 23 0;
#X connect 5 0 26 0;
#X connect 6 0 24 0;
#X connect 7 0 25 0;
#X connect 11 0 39 0;
#X connect 12 0 36 2;
#X connect 13 0 36 1;
#X connect 15 0 37 0;
#X connect 16 0 10 0;
#X connect 17 0 9 0;
#X connect 18 0 14 0;
#X connect 19 0 16 0;
#X connect 19 1 17 0;
#X connect 20 0 18 0;
#X connect 21 0 22 0;
#X connect 22 0 19 0;
#X connect 22 1 20 0;
#X connect 25 0 24 0;
#X connect 30 0 37 2;
#X connect 31 0 41 0;
#X connect 32 0 42 0;
#X connect 33 0 40 0;
#X connect 37 0 15 0;
#X connect 43 0 4 0;
#X connect 43 0 31 0;
#X connect 43 1 5 0;
#X connect 43 1 32 0;
#X connect 43 2 7 0;
#X connect 43 2 11 0;
#X connect 43 3 6 0;
#X connect 43 3 33 0;
#X connect 43 4 37 0;
#X connect 43 5 21 2;
#X connect 43 6 21 1;
#X connect 43 7 21 0;
#X connect 43 8 1 0;
#X connect 43 9 0 0;
#X connect 43 10 2 0;
#X connect 43 13 3 0;
#X connect 43 14 30 0;
#X connect 43 15 12 0;
#X connect 43 16 13 0;
#X coords 0 -1 1 1 450 170 1 100 100;
