#N canvas -41 4 972 562 10;
#X obj 471 214 tgl 25 0 empty empty empty 17 7 0 10 -260097 -1 -1 0
1;
#X obj 445 239 tgl 25 0 empty empty empty 17 7 0 10 -262144 -1 -1 0
1;
#X obj 445 189 tgl 25 0 empty empty empty 17 7 0 10 -262144 -1 -1 0
1;
#X obj 419 214 tgl 25 0 empty empty empty 17 7 0 10 -260097 -1 -1 0
1;
#X obj 620 111 vsl 30 128 0 1 0 0 empty empty empty 0 -9 0 10 -258113
-1 -1 0 1;
#X obj 555 111 vsl 30 128 0 1 0 0 empty empty empty 0 -9 0 10 -258113
-1 -1 0 1;
#X obj 523 111 vsl 30 128 0 1 0 0 empty empty empty 0 -9 0 10 -258113
-1 -1 0 1;
#X obj 587 111 vsl 30 128 0 1 0 0 empty empty empty 0 -9 0 10 -258113
-1 -1 0 1;
#X obj 517 275 > 0.1;
#X obj 553 275 > 0.1;
#X obj 589 275 > 0.1;
#X obj 676 297 s xaxisr;
#X obj 730 297 s yaxisr;
#X obj 786 297 s zaxisr;
#X obj 625 275 > 0.07;
#X floatatom 678 254 5 0 0 0 - - -;
#X floatatom 730 254 5 0 0 0 - - -;
#X floatatom 792 254 5 0 0 0 - - -;
#X obj 679 117 grid grid2 127 1 127 127 1 127 1 1 1 13 13 679 117;
#X text 674 281 ctl20;
#X text 733 281 ctl21;
#X text 789 280 ctl22;
#X text 712 271 Up/down tilt;
#X text 667 271 L/R Tilt;
#X text 373 271 top/bttm;
#X obj 806 116 vsl 15 127 1 127 0 0 empty empty empty 0 -9 0 10 -260097
-1 -1 0 1;
#X obj 703 68 pack f f f;
#N canvas 229 189 450 300 accelerometer 0;
#X text 106 146 Accelerometer;
#X msg 51 164 goto \$1 \$2;
#X obj 51 145 pack 1 1;
#X obj 80 51 unpack f f f;
#X floatatom 52 78 5 0 0 0 - - -;
#X floatatom 110 77 5 0 0 0 - - -;
#X floatatom 149 76 5 0 0 0 - - -;
#N canvas 0 0 320 427 calibrate 0;
#X floatatom 85 130 5 0 0 0 - - -;
#X obj 103 174 spigot;
#X floatatom 124 211 5 0 0 0 - - -;
#X obj 142 130 tgl 15 0 empty empty empty 17 7 0 10 -262144 -1 -1 0
1;
#X obj 96 257 -;
#X floatatom 97 291 5 0 0 0 - - -;
#X obj 81 76 inlet;
#X obj 157 75 inlet;
#X obj 99 343 outlet;
#X connect 0 0 1 0;
#X connect 0 0 4 0;
#X connect 1 0 2 0;
#X connect 2 0 4 1;
#X connect 3 0 1 1;
#X connect 4 0 5 0;
#X connect 5 0 8 0;
#X connect 6 0 0 0;
#X connect 7 0 3 0;
#X restore 13 101 pd calibrate;
#N canvas 0 0 320 427 calibrate 0;
#X floatatom 85 130 5 0 0 0 - - -;
#X obj 103 174 spigot;
#X floatatom 124 211 5 0 0 0 - - -;
#X obj 142 130 tgl 15 0 empty empty empty 17 7 0 10 -262144 -1 -1 0
1;
#X obj 96 257 -;
#X floatatom 97 291 5 0 0 0 - - -;
#X obj 81 76 inlet;
#X obj 157 75 inlet;
#X obj 99 343 outlet;
#X connect 0 0 1 0;
#X connect 0 0 4 0;
#X connect 1 0 2 0;
#X connect 2 0 4 1;
#X connect 3 0 1 1;
#X connect 4 0 5 0;
#X connect 5 0 8 0;
#X connect 6 0 0 0;
#X connect 7 0 3 0;
#X restore 200 102 pd calibrate;
#N canvas 195 246 320 427 calibrate 0;
#X floatatom 85 130 5 0 0 0 - - -;
#X obj 103 174 spigot;
#X floatatom 124 211 5 0 0 0 - - -;
#X obj 142 130 tgl 15 0 empty empty empty 17 7 0 10 -262144 -1 -1 0
1;
#X obj 96 257 -;
#X floatatom 97 291 5 0 0 0 - - -;
#X obj 81 76 inlet;
#X obj 157 75 inlet;
#X obj 99 343 outlet;
#X connect 0 0 1 0;
#X connect 0 0 4 0;
#X connect 1 0 2 0;
#X connect 2 0 4 1;
#X connect 3 0 1 1;
#X connect 4 0 5 0;
#X connect 5 0 8 0;
#X connect 6 0 0 0;
#X connect 7 0 3 0;
#X restore 107 101 pd calibrate;
#X obj 220 123 tgl 15 0 empty empty empty 17 7 0 10 -262144 -1 -1 0
1;
#X obj 221 148 tgl 15 0 empty empty empty 17 7 0 10 -262144 -1 -1 0
1;
#X obj 221 171 tgl 15 0 empty empty empty 17 7 0 10 -262144 -1 -1 0
1;
#X text 212 184 calibration;
#X obj 53 126 * 127;
#X obj 104 127 * 127;
#X obj 80 27 inlet;
#X obj 51 190 outlet;
#X obj 152 195 outlet;
#X obj 151 127 * 127;
#X connect 1 0 17 0;
#X connect 2 0 1 0;
#X connect 3 0 4 0;
#X connect 3 1 5 0;
#X connect 3 2 6 0;
#X connect 4 0 7 0;
#X connect 5 0 9 0;
#X connect 6 0 8 0;
#X connect 7 0 14 0;
#X connect 8 0 19 0;
#X connect 9 0 15 0;
#X connect 10 0 7 1;
#X connect 11 0 9 1;
#X connect 12 0 8 1;
#X connect 14 0 2 0;
#X connect 15 0 2 1;
#X connect 16 0 3 0;
#X connect 19 0 18 0;
#X restore 704 98 pd accelerometer;
#X floatatom 591 245 5 0 0 0 - - -;
#X floatatom 557 245 5 0 0 0 - - -;
#X floatatom 524 245 5 0 0 0 - - -;
#X floatatom 626 245 5 0 0 0 - - -;
#X obj 431 118 tgl 50 0 empty empty empty 17 7 0 10 -258113 -1 -1 0
1;
#X obj 498 135 tgl 15 0 empty empty empty 17 7 0 10 -258113 -1 -1 0
1;
#X obj 482 119 tgl 15 0 empty empty empty 17 7 0 10 -260097 -1 -1 0
1;
#X obj 482 152 tgl 15 0 empty empty empty 17 7 0 10 -260097 -1 -1 0
1;
#X text 382 99 Right hand upper joystick;
#N canvas 31 273 811 450 RJB 0;
#X obj 162 46 sel 0 1;
#X msg 135 71 127 16 1;
#X msg 197 72 0 16 1;
#X obj 188 190 change;
#X obj 187 211 sel 0 1;
#X msg 165 236 127 17 1;
#X msg 225 236 0 17 1;
#X obj 184 164 ctlout;
#X floatatom 212 47 5 0 0 0 - - -;
#N canvas 460 140 236 277 bk 0;
#X obj 99 39 tgl 15 0 empty empty empty 17 7 0 10 -262144 -1 -1 0 3
;
#X obj 88 113 tgl 15 0 empty empty empty 17 7 0 10 -262144 -1 -1 0
0.596351;
#X obj 62 44 * 3;
#X floatatom 27 51 5 0 0 0 - - -;
#X obj 59 9 inlet;
#X obj 98 244 outlet;
#X msg 98 219 1;
#X obj 44 84 threshold 3 0 2 0;
#X msg 127 219 0;
#X floatatom 45 169 5 0 0 0 - - -;
#X obj 96 141 * 2;
#X obj 98 193 sel 1 0;
#X obj 103 168 int;
#X connect 1 0 10 0;
#X connect 2 0 0 0;
#X connect 2 0 3 0;
#X connect 2 0 7 0;
#X connect 4 0 2 0;
#X connect 6 0 5 0;
#X connect 7 0 1 0;
#X connect 7 1 1 0;
#X connect 8 0 5 0;
#X connect 10 0 12 0;
#X connect 11 0 6 0;
#X connect 11 1 8 0;
#X connect 12 0 11 0;
#X connect 12 0 9 0;
#X restore 162 25 pd bk better;
#X obj 87 168 s xlrmtr1;
#X obj 267 164 s xlrmtr2;
#X text 248 48 comment;
#X obj 162 -38 inlet;
#X obj 200 -37 inlet;
#X obj 240 -36 inlet;
#X obj 278 -35 inlet;
#X obj 200 -7 s led64;
#X obj 257 -6 s led65;
#X obj 512 214 ctlout 28;
#X obj 371 192 ctlout 21;
#X obj 511 192 ctlout 20;
#X obj 440 192 ctlout 22;
#N canvas 159 40 968 617 xlrmtr 0;
#X floatatom 11 324 5 0 0 0 - - -;
#X floatatom 83 324 5 0 0 0 - - -;
#X floatatom 153 321 5 0 0 0 - - -;
#X text 7 351 ctl20;
#X text 78 354 ctl21;
#X text 152 352 ctl22;
#X text 59 341 Up/down tilt;
#X text 0 341 L/R Tilt;
#X text 149 341 top/bttm;
#X floatatom 674 508 5 0 0 0 - - -;
#X obj 707 587 t b b;
#X obj 697 632 f;
#X obj 701 662 + 1;
#X obj 482 404 tgl 15 0 empty empty empty 17 7 0 10 -262144 -1 -1 0
1;
#X obj 662 688 * 127;
#X floatatom 659 604 5 0 0 0 - - -;
#X msg 731 616 1;
#X obj 482 423 bng 15 250 50 0 empty empty empty 17 7 0 10 -262144
-1 -1;
#X obj 32 690 outlet;
#X obj 325 693 outlet;
#X obj 589 693 outlet;
#X obj 706 687 outlet;
#X text 255 692 Y;
#X text 525 692 Z;
#X text 669 702 Z flip switch;
#X text -48 691 X;
#X obj 712 486 moses 126;
#X obj 712 537 < 126;
#X obj 709 508 - 126;
#X floatatom 96 508 5 0 0 0 - - -;
#X obj 129 587 t b b;
#X obj 119 632 f;
#X obj 123 662 + 1;
#X obj 349 405 tgl 15 0 empty empty empty 17 7 0 10 -262144 -1 -1 0
1;
#X obj 84 688 * 127;
#X floatatom 81 604 5 0 0 0 - - -;
#X msg 153 616 1;
#X obj 349 422 bng 15 250 50 0 empty empty empty 17 7 0 10 -262144
-1 -1;
#X obj 134 486 moses 126;
#X obj 134 537 < 126;
#X obj 131 508 - 126;
#X floatatom 387 512 5 0 0 0 - - -;
#X obj 420 591 t b b;
#X obj 410 636 f;
#X obj 414 666 + 1;
#X obj 418 405 tgl 15 0 empty empty empty 17 7 0 10 -262144 -1 -1 0
1;
#X obj 375 692 * 127;
#X floatatom 372 608 5 0 0 0 - - -;
#X msg 444 620 1;
#X obj 418 423 bng 15 250 50 0 empty empty empty 17 7 0 10 -262144
-1 -1;
#X obj 136 564 delay 150;
#X obj 427 568 delay 150;
#X obj 714 564 delay 150;
#X obj 432 693 outlet;
#X obj 149 691 outlet;
#X text 112 706 x flip switch;
#X text 398 708 y flip switch;
#X floatatom -58 562 5 0 0 0 - - -;
#X obj -58 584 - 1;
#X floatatom -58 607 5 0 0 0 - - -;
#X obj -58 534 clip 2 1;
#X floatatom -3 623 5 0 0 0 - - -;
#X obj -3 575 t b b;
#X obj -3 598 f;
#X obj 303 422 bng 15 250 50 0 empty empty empty 17 7 0 10 -262144
-1 -1;
#X obj -3 534 sel 1;
#X obj -3 555 delay 100;
#X obj 303 403 tgl 15 0 empty empty empty 17 7 0 10 -262144 -1 -1 0
1;
#X obj -32 670 * 127;
#X obj -23 694 outlet;
#X floatatom 246 561 5 0 0 0 - - -;
#X obj 246 583 - 1;
#X floatatom 246 606 5 0 0 0 - - -;
#X obj 246 532 clip 2 1;
#X floatatom 301 622 5 0 0 0 - - -;
#X obj 301 574 t b b;
#X obj 301 597 f;
#X obj 367 423 bng 15 250 50 0 empty empty empty 17 7 0 10 -262144
-1 -1;
#X obj 301 533 sel 1;
#X obj 301 554 delay 100;
#X obj 368 405 tgl 15 0 empty empty empty 17 7 0 10 -262144 -1 -1 0
1;
#X obj 272 669 * 127;
#X obj 272 699 outlet;
#X floatatom 516 562 5 0 0 0 - - -;
#X obj 516 584 - 1;
#X floatatom 516 607 5 0 0 0 - - -;
#X obj 516 533 clip 2 1;
#X floatatom 571 623 5 0 0 0 - - -;
#X obj 571 575 t b b;
#X obj 571 598 f;
#X obj 439 423 bng 15 100 50 0 empty empty empty 17 7 0 10 -262144
-1 -1;
#X obj 571 534 sel 1;
#X obj 571 555 delay 100;
#X obj 437 405 tgl 15 0 empty empty empty 17 7 0 10 -262144 -1 -1 0
1;
#X obj 542 670 * 127;
#X obj 542 692 outlet;
#X obj -3 182 r xaxisr;
#X obj 51 182 r yaxisr;
#X obj 105 183 r zaxisr;
#X obj 508 383 s led50;
#X obj 508 401 s led51;
#X obj 508 419 s led52;
#X obj 508 437 s led53;
#X obj 508 455 s led54;
#X obj 508 473 s led55;
#N canvas 0 0 303 384 rangex 0;
#X obj 106 72 clip 36 96;
#X floatatom 107 102 5 0 0 0 - - -;
#X obj 107 124 - 36;
#X floatatom 108 151 5 0 0 0 - - -;
#X floatatom 109 224 5 0 0 0 - - -;
#X obj 109 196 int;
#X obj 108 176 * 2.2;
#X obj 109 247 clip 0 127;
#X floatatom 112 280 5 0 0 0 - - -;
#X text 146 100 range multiplier;
#X obj 107 40 inlet;
#X obj 115 317 outlet;
#X connect 0 0 1 0;
#X connect 1 0 2 0;
#X connect 2 0 3 0;
#X connect 3 0 6 0;
#X connect 4 0 7 0;
#X connect 5 0 4 0;
#X connect 6 0 5 0;
#X connect 7 0 8 0;
#X connect 8 0 11 0;
#X connect 10 0 0 0;
#X restore 20 652 pd rangex;
#N canvas 0 0 303 384 rangex 0;
#X obj 106 72 clip 36 96;
#X floatatom 107 102 5 0 0 0 - - -;
#X obj 107 124 - 36;
#X floatatom 108 151 5 0 0 0 - - -;
#X floatatom 109 224 5 0 0 0 - - -;
#X obj 109 196 int;
#X obj 108 176 * 2.2;
#X obj 109 247 clip 0 127;
#X floatatom 112 280 5 0 0 0 - - -;
#X text 146 100 range multiplier;
#X obj 107 40 inlet;
#X obj 115 317 outlet;
#X connect 0 0 1 0;
#X connect 1 0 2 0;
#X connect 2 0 3 0;
#X connect 3 0 6 0;
#X connect 4 0 7 0;
#X connect 5 0 4 0;
#X connect 6 0 5 0;
#X connect 7 0 8 0;
#X connect 8 0 11 0;
#X connect 10 0 0 0;
#X restore 184 651 pd rangex;
#X obj 436 452 tgl 15 0 empty empty empty 17 7 0 10 -262144 -1 -1 0
1;
#X obj 425 490 moses 123;
#X obj 422 512 - 123;
#X obj 425 541 < 123;
#X obj 129 277 sel 0 1;
#X msg 129 297 0;
#X msg 158 297 127;
#X obj 5 239 pack f f f;
#X obj 5 282 spigot;
#X obj 5 304 unpack f f f;
#X obj 37 258 r xlrmtr2;
#X text -58 342 comment;
#X connect 0 0 38 0;
#X connect 0 0 60 0;
#X connect 0 0 105 0;
#X connect 1 0 108 0;
#X connect 1 0 106 0;
#X connect 1 0 73 0;
#X connect 2 0 26 0;
#X connect 9 0 20 0;
#X connect 10 0 11 0;
#X connect 10 1 16 0;
#X connect 11 0 12 0;
#X connect 12 0 17 0;
#X connect 13 0 14 0;
#X connect 13 0 103 0;
#X connect 14 0 21 0;
#X connect 16 0 11 1;
#X connect 17 0 13 0;
#X connect 26 0 9 0;
#X connect 26 1 27 0;
#X connect 27 0 15 0;
#X connect 27 0 52 0;
#X connect 28 0 27 0;
#X connect 30 0 31 0;
#X connect 30 1 36 0;
#X connect 31 0 32 0;
#X connect 32 0 37 0;
#X connect 33 0 34 0;
#X connect 33 0 102 0;
#X connect 34 0 54 0;
#X connect 36 0 31 1;
#X connect 37 0 33 0;
#X connect 38 0 29 0;
#X connect 38 1 39 0;
#X connect 39 0 35 0;
#X connect 39 0 50 0;
#X connect 40 0 39 0;
#X connect 42 0 43 0;
#X connect 42 1 48 0;
#X connect 43 0 44 0;
#X connect 44 0 49 0;
#X connect 45 0 46 0;
#X connect 45 0 100 0;
#X connect 46 0 82 0;
#X connect 48 0 43 1;
#X connect 49 0 45 0;
#X connect 50 0 30 0;
#X connect 51 0 42 0;
#X connect 52 0 10 0;
#X connect 57 0 58 0;
#X connect 58 0 59 0;
#X connect 59 0 65 0;
#X connect 60 0 57 0;
#X connect 61 0 64 0;
#X connect 62 0 63 0;
#X connect 63 0 61 0;
#X connect 64 0 67 0;
#X connect 65 0 66 0;
#X connect 66 0 62 0;
#X connect 67 0 68 0;
#X connect 67 0 99 0;
#X connect 68 0 69 0;
#X connect 70 0 71 0;
#X connect 71 0 72 0;
#X connect 72 0 78 0;
#X connect 73 0 70 0;
#X connect 74 0 77 0;
#X connect 75 0 76 0;
#X connect 76 0 74 0;
#X connect 77 0 80 0;
#X connect 78 0 79 0;
#X connect 79 0 75 0;
#X connect 80 0 81 0;
#X connect 80 0 101 0;
#X connect 81 0 53 0;
#X connect 83 0 84 0;
#X connect 84 0 85 0;
#X connect 85 0 91 0;
#X connect 86 0 83 0;
#X connect 87 0 90 0;
#X connect 88 0 89 0;
#X connect 89 0 87 0;
#X connect 90 0 93 0;
#X connect 91 0 92 0;
#X connect 92 0 88 0;
#X connect 93 0 94 0;
#X connect 93 0 104 0;
#X connect 94 0 95 0;
#X connect 96 0 114 0;
#X connect 97 0 114 1;
#X connect 98 0 86 0;
#X connect 98 0 114 2;
#X connect 105 0 18 0;
#X connect 106 0 19 0;
#X connect 108 0 41 0;
#X connect 108 1 110 0;
#X connect 109 0 110 0;
#X connect 110 0 47 0;
#X connect 110 0 51 0;
#X connect 111 0 112 0;
#X connect 111 1 113 0;
#X connect 112 0 82 0;
#X connect 112 0 53 0;
#X connect 112 0 21 0;
#X connect 112 0 69 0;
#X connect 112 0 54 0;
#X connect 112 0 95 0;
#X connect 113 0 69 0;
#X connect 114 0 115 0;
#X connect 115 0 116 0;
#X connect 116 0 0 0;
#X connect 116 1 1 0;
#X connect 116 2 2 0;
#X connect 117 0 115 1;
#X connect 117 0 111 0;
#X coords 0 -1 1 1 200 40 2 300 400;
#X restore 371 123 pd xlrmtr l ctrl;
#X text 377 103 |---x---| |---y----| |---z---|;
#X obj 371 171 ctlout 110;
#X obj 440 215 ctlout 111;
#N canvas 150 0 895 738 xlrmtr 0;
#X floatatom -41 301 5 0 0 0 - - -;
#X floatatom 31 301 5 0 0 0 - - -;
#X floatatom 101 298 5 0 0 0 - - -;
#X text -40 326 ctl20;
#X text 31 329 ctl21;
#X text 105 327 ctl22;
#X text 7 318 Up/down tilt;
#X text -52 318 L/R Tilt;
#X text 97 318 top/bttm;
#X floatatom 674 507 5 0 0 0 - - -;
#X obj 707 586 t b b;
#X obj 697 631 f;
#X obj 701 661 + 1;
#X obj 482 403 tgl 15 0 empty empty empty 17 7 0 10 -262144 -1 -1 0
1;
#X obj 662 687 * 127;
#X floatatom 659 603 5 0 0 0 - - -;
#X msg 731 615 1;
#X obj 482 422 bng 15 250 50 0 empty empty empty 17 7 0 10 -262144
-1 -1;
#X obj 32 689 outlet;
#X obj 325 692 outlet;
#X obj 589 692 outlet;
#X obj 706 686 outlet;
#X text 255 691 Y;
#X text 525 691 Z;
#X text 669 701 Z flip switch;
#X text -48 690 X;
#X obj 712 485 moses 126;
#X obj 712 536 < 126;
#X obj 709 507 - 126;
#X floatatom 96 507 5 0 0 0 - - -;
#X obj 129 586 t b b;
#X obj 119 631 f;
#X obj 123 661 + 1;
#X obj 349 404 tgl 15 0 empty empty empty 17 7 0 10 -262144 -1 -1 0
1;
#X obj 84 687 * 127;
#X floatatom 81 603 5 0 0 0 - - -;
#X msg 153 615 1;
#X obj 349 421 bng 15 250 50 0 empty empty empty 17 7 0 10 -262144
-1 -1;
#X obj 134 485 moses 126;
#X obj 134 536 < 126;
#X obj 131 507 - 126;
#X floatatom 387 511 5 0 0 0 - - -;
#X obj 420 590 t b b;
#X obj 410 635 f;
#X obj 414 665 + 1;
#X obj 418 404 tgl 15 0 empty empty empty 17 7 0 10 -262144 -1 -1 0
1;
#X obj 375 691 * 127;
#X floatatom 372 607 5 0 0 0 - - -;
#X msg 444 619 1;
#X obj 418 422 bng 15 250 50 0 empty empty empty 17 7 0 10 -262144
-1 -1;
#X obj 136 563 delay 150;
#X obj 427 567 delay 150;
#X obj 714 563 delay 150;
#X obj 432 692 outlet;
#X obj 149 690 outlet;
#X text 112 705 x flip switch;
#X text 398 707 y flip switch;
#X floatatom -58 561 5 0 0 0 - - -;
#X obj -58 583 - 1;
#X floatatom -58 606 5 0 0 0 - - -;
#X obj -58 533 clip 2 1;
#X floatatom -3 622 5 0 0 0 - - -;
#X obj -3 574 t b b;
#X obj -3 597 f;
#X obj 303 421 bng 15 250 50 0 empty empty empty 17 7 0 10 -262144
-1 -1;
#X obj -3 533 sel 1;
#X obj -3 554 delay 100;
#X obj 303 402 tgl 15 0 empty empty empty 17 7 0 10 -262144 -1 -1 0
1;
#X obj -32 669 * 127;
#X obj -23 693 outlet;
#X floatatom 246 560 5 0 0 0 - - -;
#X obj 246 582 - 1;
#X floatatom 246 605 5 0 0 0 - - -;
#X obj 246 531 clip 2 1;
#X floatatom 301 621 5 0 0 0 - - -;
#X obj 301 573 t b b;
#X obj 301 596 f;
#X obj 367 422 bng 15 250 50 0 empty empty empty 17 7 0 10 -262144
-1 -1;
#X obj 301 532 sel 1;
#X obj 301 553 delay 100;
#X obj 368 404 tgl 15 0 empty empty empty 17 7 0 10 -262144 -1 -1 0
1;
#X obj 272 668 * 127;
#X obj 272 690 outlet;
#X floatatom 516 561 5 0 0 0 - - -;
#X obj 516 583 - 1;
#X floatatom 516 606 5 0 0 0 - - -;
#X obj 516 532 clip 2 1;
#X floatatom 571 622 5 0 0 0 - - -;
#X obj 571 574 t b b;
#X obj 571 597 f;
#X obj 437 422 bng 15 100 50 0 empty empty empty 17 7 0 10 -262144
-1 -1;
#X obj 571 533 sel 1;
#X obj 437 404 tgl 15 0 empty empty empty 17 7 0 10 -262144 -1 -1 0
1;
#X obj 542 669 * 127;
#X obj 542 691 outlet;
#X obj -17 126 r xaxisr;
#X obj 76 118 r yaxisr;
#X obj 153 141 r zaxisr;
#X obj 508 382 s led50;
#X obj 508 400 s led51;
#X obj 508 418 s led52;
#X obj 508 436 s led53;
#X obj 508 454 s led54;
#X obj 508 472 s led55;
#N canvas 0 0 303 384 rangex 0;
#X obj 106 72 clip 36 96;
#X floatatom 107 102 5 0 0 0 - - -;
#X obj 107 124 - 36;
#X floatatom 108 151 5 0 0 0 - - -;
#X floatatom 109 224 5 0 0 0 - - -;
#X obj 109 196 int;
#X obj 108 176 * 2.2;
#X obj 109 247 clip 0 127;
#X floatatom 112 280 5 0 0 0 - - -;
#X text 146 100 range multiplier;
#X obj 107 40 inlet;
#X obj 115 317 outlet;
#X connect 0 0 1 0;
#X connect 1 0 2 0;
#X connect 2 0 3 0;
#X connect 3 0 6 0;
#X connect 4 0 7 0;
#X connect 5 0 4 0;
#X connect 6 0 5 0;
#X connect 7 0 8 0;
#X connect 8 0 11 0;
#X connect 10 0 0 0;
#X restore 20 651 pd rangex;
#N canvas 0 0 303 384 rangex 0;
#X obj 106 72 clip 36 96;
#X floatatom 107 102 5 0 0 0 - - -;
#X obj 107 124 - 36;
#X floatatom 108 151 5 0 0 0 - - -;
#X floatatom 109 224 5 0 0 0 - - -;
#X obj 109 196 int;
#X obj 108 176 * 2.2;
#X obj 109 247 clip 0 127;
#X floatatom 112 280 5 0 0 0 - - -;
#X text 146 100 range multiplier;
#X obj 107 40 inlet;
#X obj 115 317 outlet;
#X connect 0 0 1 0;
#X connect 1 0 2 0;
#X connect 2 0 3 0;
#X connect 3 0 6 0;
#X connect 4 0 7 0;
#X connect 5 0 4 0;
#X connect 6 0 5 0;
#X connect 7 0 8 0;
#X connect 8 0 11 0;
#X connect 10 0 0 0;
#X restore 184 650 pd rangex;
#X obj 436 451 tgl 15 0 empty empty empty 17 7 0 10 -262144 -1 -1 0
1;
#X obj 129 251 sel 0 1;
#X msg 129 271 0;
#X msg 158 271 127;
#X obj 425 489 moses 123;
#X obj 422 511 - 123;
#X obj 425 540 < 123;
#X obj 5 213 pack f f f;
#X obj 5 256 spigot;
#X obj 5 278 unpack f f f;
#X obj 71 214 r xlrmtr1;
#X obj 571 554 delay 200;
#X obj 5 175 int;
#X floatatom 497 213 5 0 0 0 - - -;
#X obj 474 213 int;
#X obj 474 195 average 10;
#X obj 475 230 change;
#X floatatom 515 231 5 0 0 0 - - -;
#X floatatom 423 212 5 0 0 0 - - -;
#X obj 400 212 int;
#X obj 400 195 average 10;
#X obj 401 229 change;
#X floatatom 441 230 5 0 0 0 - - -;
#X floatatom 350 211 5 0 0 0 - - -;
#X obj 327 193 average 10;
#X obj 328 228 change;
#X floatatom 368 229 5 0 0 0 - - -;
#X connect 0 0 38 0;
#X connect 0 0 104 0;
#X connect 0 0 60 0;
#X connect 1 0 110 0;
#X connect 1 0 73 0;
#X connect 1 0 105 0;
#X connect 2 0 26 0;
#X connect 2 0 86 0;
#X connect 9 0 20 0;
#X connect 10 0 11 0;
#X connect 10 1 16 0;
#X connect 11 0 12 0;
#X connect 12 0 17 0;
#X connect 13 0 14 0;
#X connect 13 0 102 0;
#X connect 14 0 21 0;
#X connect 16 0 11 1;
#X connect 17 0 13 0;
#X connect 26 0 9 0;
#X connect 26 1 27 0;
#X connect 27 0 15 0;
#X connect 27 0 52 0;
#X connect 28 0 27 0;
#X connect 30 0 31 0;
#X connect 30 1 36 0;
#X connect 31 0 32 0;
#X connect 32 0 37 0;
#X connect 33 0 34 0;
#X connect 33 0 101 0;
#X connect 34 0 54 0;
#X connect 36 0 31 1;
#X connect 37 0 33 0;
#X connect 38 0 29 0;
#X connect 38 1 39 0;
#X connect 39 0 35 0;
#X connect 39 0 50 0;
#X connect 40 0 39 0;
#X connect 42 0 43 0;
#X connect 42 1 48 0;
#X connect 43 0 44 0;
#X connect 44 0 49 0;
#X connect 45 0 46 0;
#X connect 45 0 99 0;
#X connect 46 0 53 0;
#X connect 48 0 43 1;
#X connect 49 0 45 0;
#X connect 50 0 30 0;
#X connect 51 0 42 0;
#X connect 52 0 10 0;
#X connect 57 0 58 0;
#X connect 58 0 59 0;
#X connect 59 0 65 0;
#X connect 60 0 57 0;
#X connect 61 0 64 0;
#X connect 62 0 63 0;
#X connect 63 0 61 0;
#X connect 64 0 67 0;
#X connect 65 0 66 0;
#X connect 66 0 62 0;
#X connect 67 0 68 0;
#X connect 67 0 98 0;
#X connect 68 0 69 0;
#X connect 70 0 71 0;
#X connect 71 0 72 0;
#X connect 72 0 78 0;
#X connect 73 0 70 0;
#X connect 74 0 77 0;
#X connect 75 0 76 0;
#X connect 76 0 74 0;
#X connect 77 0 80 0;
#X connect 78 0 79 0;
#X connect 79 0 75 0;
#X connect 80 0 81 0;
#X connect 80 0 100 0;
#X connect 81 0 82 0;
#X connect 83 0 84 0;
#X connect 84 0 85 0;
#X connect 85 0 91 0;
#X connect 86 0 83 0;
#X connect 87 0 90 0;
#X connect 88 0 89 0;
#X connect 89 0 87 0;
#X connect 90 0 92 0;
#X connect 91 0 117 0;
#X connect 92 0 93 0;
#X connect 92 0 103 0;
#X connect 93 0 94 0;
#X connect 95 0 113 0;
#X connect 96 0 113 1;
#X connect 97 0 113 2;
#X connect 104 0 18 0;
#X connect 105 0 19 0;
#X connect 107 0 108 0;
#X connect 107 1 109 0;
#X connect 108 0 69 0;
#X connect 108 0 53 0;
#X connect 108 0 54 0;
#X connect 108 0 82 0;
#X connect 108 0 21 0;
#X connect 108 0 94 0;
#X connect 110 0 41 0;
#X connect 110 1 112 0;
#X connect 111 0 112 0;
#X connect 112 0 47 0;
#X connect 112 0 51 0;
#X connect 113 0 114 0;
#X connect 114 0 115 0;
#X connect 115 0 0 0;
#X connect 115 1 1 0;
#X connect 115 2 2 0;
#X connect 116 0 114 1;
#X connect 116 0 107 0;
#X connect 117 0 88 0;
#X connect 120 0 119 0;
#X connect 120 0 122 0;
#X connect 121 0 120 0;
#X connect 122 0 123 0;
#X connect 125 0 124 0;
#X connect 125 0 127 0;
#X connect 126 0 125 0;
#X connect 127 0 128 0;
#X connect 131 0 132 0;
#X coords 0 -1 1 1 200 40 2 300 400;
#X restore 372 -5 pd xlrmtr l ctrl;
#X text 380 -22 |---x---| |---y----| |---z---|;
#X text 418 -38 Pre-FX;
#X text 441 93 Post-FX;
#X obj 369 41 ctlout 112;
#X obj 369 61 ctlout 113;
#X obj 448 60 ctlout 114;
#X obj 522 40 ctlout 115;
#X obj 522 60 ctlout 116;
#X obj 523 80 ctlout 117;
#X text 461 -38 RJB-FORWARD;
#X connect 0 0 1 0;
#X connect 0 1 2 0;
#X connect 1 0 7 0;
#X connect 2 0 7 0;
#X connect 3 0 4 0;
#X connect 4 0 5 0;
#X connect 4 1 6 0;
#X connect 5 0 7 0;
#X connect 6 0 7 0;
#X connect 9 0 0 0;
#X connect 9 0 8 0;
#X connect 13 0 9 0;
#X connect 14 0 10 0;
#X connect 14 0 17 0;
#X connect 15 0 3 0;
#X connect 16 0 11 0;
#X connect 16 0 18 0;
#X connect 23 0 25 0;
#X connect 23 1 20 0;
#X connect 23 4 22 0;
#X connect 23 5 26 0;
#X connect 23 7 21 0;
#X connect 23 8 19 0;
#X connect 27 0 31 0;
#X connect 27 1 32 0;
#X connect 27 4 33 0;
#X connect 27 6 34 0;
#X connect 27 7 35 0;
#X connect 27 8 36 0;
#X restore 232 359 pd RJB controlmatrix;
#X text 674 244 comment;
#N canvas 120 173 1074 568 RJ 0;
#X obj 446 129 s rjuforward;
#X obj 582 126 s rjuback;
#X obj 703 130 s rjuup;
#X obj 827 131 s rjudown;
#X obj 142 198 r pgm2chnl;
#X text 163 238 X;
#X text 164 273 Y;
#X text 164 307 Z;
#X obj 386 203 r pgm2chnl;
#X text 407 243 X;
#X text 408 278 Y;
#X text 408 312 Z;
#X obj 637 205 r pgm2chnl;
#X text 658 245 X;
#X text 659 280 Y;
#X text 659 314 Z;
#X obj 876 206 r pgm2chnl;
#X text 897 246 X;
#X text 898 281 Y;
#X text 898 315 Z;
#X obj -18 242 ctlout 53;
#X obj 42 241 ctlout 54;
#X obj 99 241 ctlout 55;
#X obj -17 273 ctlout 56;
#X obj 42 273 ctlout 57;
#X obj 99 273 ctlout 58;
#X obj -18 306 ctlout 59;
#X obj 42 306 ctlout 60;
#X obj 99 306 ctlout 61;
#X obj 227 246 ctlout 62;
#X obj 286 246 ctlout 63;
#X obj 343 246 ctlout 64;
#X obj 226 277 ctlout 65;
#X obj 286 278 ctlout 66;
#X obj 343 278 ctlout 67;
#X obj 230 310 ctlout 68;
#X obj 286 311 ctlout 691;
#X obj 343 311 ctlout 70;
#X obj 481 247 ctlout 71;
#X obj 537 248 ctlout 72;
#X obj 594 248 ctlout 73;
#X obj 481 279 ctlout 74;
#X obj 537 280 ctlout 75;
#X obj 594 280 ctlout 76;
#X obj 481 312 ctlout 77;
#X obj 537 313 ctlout 78;
#X obj 594 313 ctlout 79;
#X obj 720 248 ctlout 82;
#X obj 776 249 ctlout 83;
#X obj 833 249 ctlout 84;
#X obj 717 281 ctlout 85;
#X obj 776 281 ctlout 86;
#X obj 833 281 ctlout 87;
#X obj 717 315 ctlout 88;
#X obj 776 314 ctlout 89;
#X obj 833 314 ctlout 90;
#X text 962 265 LEFT;
#X obj 163 380 r pgm2chnl;
#X text 184 420 X;
#X text 185 455 Y;
#X text 185 489 Z;
#X obj 396 385 r pgm2chnl;
#X text 417 425 X;
#X text 418 460 Y;
#X text 418 494 Z;
#X obj 646 387 r pgm2chnl;
#X text 667 427 X;
#X text 668 462 Y;
#X text 668 496 Z;
#X obj 888 390 r pgm2chnl;
#X text 917 430 X;
#X text 917 465 Y;
#X text 918 500 Z;
#X obj 26 360 xlrmtrmatrixr forward;
#X obj -15 423 ctlout 29;
#X obj 63 423 ctlout 30;
#X obj 143 423 ctlout 32;
#X obj -14 454 ctlout 33;
#X obj 63 455 ctlout 34;
#X obj 143 455 ctlout 35;
#X obj -15 487 ctlout 36;
#X obj 63 488 ctlout 37;
#X obj 143 488 ctlout 38;
#X obj 228 428 ctlout 39;
#X obj 296 428 ctlout 40;
#X obj 374 428 ctlout 41;
#X obj 227 459 ctlout 42;
#X obj 296 460 ctlout 43;
#X obj 374 460 ctlout 44;
#X obj 231 492 ctlout 45;
#X obj 296 493 ctlout 46;
#X obj 374 493 ctlout 47;
#X obj 490 429 ctlout 48;
#X obj 546 430 ctlout 49;
#X obj 603 430 ctlout 91;
#X obj 490 461 ctlout 92;
#X obj 546 462 ctlout 93;
#X obj 603 462 ctlout 94;
#X obj 490 494 ctlout 95;
#X obj 546 495 ctlout 96;
#X obj 603 495 ctlout 97;
#X obj 732 432 ctlout 98;
#X obj 788 433 ctlout 99;
#X obj 845 433 ctlout 104;
#X obj 721 464 ctlout 105;
#X obj 788 465 ctlout 106;
#X obj 851 465 ctlout 107;
#X obj 721 499 ctlout 108;
#X obj 788 498 ctlout 109;
#X obj 854 498 ctlout 118;
#X text 958 467 RIGHT;
#X obj 395 80 tgl 15 0 empty empty empty 17 7 0 10 -262144 -1 -1 0
1;
#X obj 395 52 sel 0 1;
#X obj 529 80 tgl 15 0 empty empty empty 17 7 0 10 -262144 -1 -1 0
1;
#X obj 529 52 sel 0 1;
#X obj 650 80 tgl 15 0 empty empty empty 17 7 0 10 -262144 -1 -1 0
1;
#X obj 647 50 sel 0 1;
#X obj 764 85 tgl 15 0 empty empty empty 17 7 0 10 -262144 -1 -1 0
1;
#X msg 795 84 1;
#X msg 768 154 0;
#X msg 651 149 0;
#X msg 530 149 0;
#X msg 396 149 0;
#X obj 395 2 inlet;
#X obj 529 2 inlet;
#X obj 647 0 inlet;
#X obj 764 7 inlet;
#X obj 116 101 tgl 15 0 empty empty empty 17 7 0 10 -262144 -1 -1 0
1;
#X obj 149 115 tgl 15 0 empty empty empty 17 7 0 10 -262144 -1 -1 0
1;
#X obj 135 132 tgl 15 0 empty empty empty 17 7 0 10 -262144 -1 -1 0
1;
#X obj 100 118 tgl 15 0 empty empty empty 17 7 0 10 -262144 -1 -1 0
1;
#X msg 676 79 1;
#X msg 555 81 1;
#X msg 421 79 1;
#X obj 764 57 sel 0 1;
#X floatatom 346 63 5 0 0 0 - - -;
#X floatatom 480 61 5 0 0 0 - - -;
#X floatatom 601 62 5 0 0 0 - - -;
#X floatatom 720 70 5 0 0 0 - - -;
#X obj 822 161 print;
#N canvas 319 87 236 193 bk 0;
#X obj 99 39 tgl 15 0 empty empty empty 17 7 0 10 -262144 -1 -1 0 3
;
#X obj 88 113 tgl 15 0 empty empty empty 17 7 0 10 -262144 -1 -1 0
1;
#X obj 62 44 * 3;
#X floatatom 27 51 5 0 0 0 - - -;
#X floatatom 98 139 5 0 0 0 - - -;
#X obj 59 9 inlet;
#X obj 91 164 outlet;
#X obj 42 81 threshold 2 1 1 2;
#X connect 1 0 6 0;
#X connect 1 0 4 0;
#X connect 2 0 0 0;
#X connect 2 0 3 0;
#X connect 2 0 7 0;
#X connect 5 0 2 0;
#X connect 7 0 1 0;
#X connect 7 1 1 0;
#X restore 395 24 pd bk;
#N canvas 319 87 236 193 bk 0;
#X obj 99 39 tgl 15 0 empty empty empty 17 7 0 10 -262144 -1 -1 0 3
;
#X obj 88 113 tgl 15 0 empty empty empty 17 7 0 10 -262144 -1 -1 0
1;
#X obj 62 44 * 3;
#X floatatom 27 51 5 0 0 0 - - -;
#X floatatom 98 139 5 0 0 0 - - -;
#X obj 59 9 inlet;
#X obj 91 164 outlet;
#X obj 42 81 threshold 2 1 1 2;
#X connect 1 0 6 0;
#X connect 1 0 4 0;
#X connect 2 0 0 0;
#X connect 2 0 3 0;
#X connect 2 0 7 0;
#X connect 5 0 2 0;
#X connect 7 0 1 0;
#X connect 7 1 1 0;
#X restore 533 27 pd bk;
#N canvas 319 87 236 193 bk 0;
#X obj 99 39 tgl 15 0 empty empty empty 17 7 0 10 -262144 -1 -1 0 3
;
#X obj 88 113 tgl 15 0 empty empty empty 17 7 0 10 -262144 -1 -1 0
1;
#X obj 62 44 * 3;
#X floatatom 27 51 5 0 0 0 - - -;
#X floatatom 98 139 5 0 0 0 - - -;
#X obj 59 9 inlet;
#X obj 91 164 outlet;
#X obj 42 81 threshold 2 1 1 2;
#X connect 1 0 6 0;
#X connect 1 0 4 0;
#X connect 2 0 0 0;
#X connect 2 0 3 0;
#X connect 2 0 7 0;
#X connect 5 0 2 0;
#X connect 7 0 1 0;
#X connect 7 1 1 0;
#X restore 647 25 pd bk;
#N canvas 319 87 236 193 bk 0;
#X obj 99 39 tgl 15 0 empty empty empty 17 7 0 10 -262144 -1 -1 0 3
;
#X obj 88 113 tgl 15 0 empty empty empty 17 7 0 10 -262144 -1 -1 0
1;
#X obj 62 44 * 3;
#X floatatom 27 51 5 0 0 0 - - -;
#X floatatom 98 139 5 0 0 0 - - -;
#X obj 59 9 inlet;
#X obj 91 164 outlet;
#X obj 42 81 threshold 2 1 1 2;
#X connect 1 0 6 0;
#X connect 1 0 4 0;
#X connect 2 0 0 0;
#X connect 2 0 3 0;
#X connect 2 0 7 0;
#X connect 5 0 2 0;
#X connect 7 0 1 0;
#X connect 7 1 1 0;
#X restore 766 32 pd bk;
#X obj 249 183 xlrmtrmatrix back;
#X obj 739 186 xlrmtrmatrix down;
#X obj 5 178 xlrmtrmatrix forward;
#X obj 500 185 xlrmtrmatrix up;
#X obj 259 365 xlrmtrmatrixr back;
#X obj 509 367 xlrmtrmatrixr up;
#X obj 751 370 xlrmtrmatrixr down;
#X connect 4 0 20 2;
#X connect 4 0 21 2;
#X connect 4 0 22 2;
#X connect 4 0 23 2;
#X connect 4 0 24 2;
#X connect 4 0 25 2;
#X connect 4 0 26 2;
#X connect 4 0 27 2;
#X connect 4 0 28 2;
#X connect 8 0 29 2;
#X connect 8 0 30 2;
#X connect 8 0 31 2;
#X connect 8 0 32 2;
#X connect 8 0 33 2;
#X connect 8 0 34 2;
#X connect 8 0 35 2;
#X connect 8 0 36 2;
#X connect 8 0 37 2;
#X connect 12 0 38 2;
#X connect 12 0 39 2;
#X connect 12 0 40 2;
#X connect 12 0 41 2;
#X connect 12 0 42 2;
#X connect 12 0 43 2;
#X connect 12 0 44 2;
#X connect 12 0 45 2;
#X connect 12 0 46 2;
#X connect 16 0 47 2;
#X connect 16 0 48 2;
#X connect 16 0 49 2;
#X connect 16 0 50 2;
#X connect 16 0 51 2;
#X connect 16 0 52 2;
#X connect 16 0 53 2;
#X connect 16 0 54 2;
#X connect 16 0 55 2;
#X connect 57 0 74 2;
#X connect 57 0 75 2;
#X connect 57 0 76 2;
#X connect 57 0 77 2;
#X connect 57 0 78 2;
#X connect 57 0 79 2;
#X connect 57 0 80 2;
#X connect 57 0 81 2;
#X connect 57 0 82 2;
#X connect 61 0 83 2;
#X connect 61 0 84 2;
#X connect 61 0 85 2;
#X connect 61 0 86 2;
#X connect 61 0 87 2;
#X connect 61 0 88 2;
#X connect 61 0 89 2;
#X connect 61 0 90 2;
#X connect 61 0 91 2;
#X connect 65 0 92 2;
#X connect 65 0 93 2;
#X connect 65 0 94 2;
#X connect 65 0 95 2;
#X connect 65 0 96 2;
#X connect 65 0 97 2;
#X connect 65 0 98 2;
#X connect 65 0 99 2;
#X connect 65 0 100 2;
#X connect 69 0 101 2;
#X connect 69 0 102 2;
#X connect 69 0 103 2;
#X connect 69 0 104 2;
#X connect 69 0 105 2;
#X connect 69 0 106 2;
#X connect 69 0 107 2;
#X connect 69 0 108 2;
#X connect 69 0 109 2;
#X connect 73 0 74 0;
#X connect 73 1 75 0;
#X connect 73 2 76 0;
#X connect 73 3 77 0;
#X connect 73 4 78 0;
#X connect 73 5 79 0;
#X connect 73 6 80 0;
#X connect 73 7 81 0;
#X connect 73 8 82 0;
#X connect 111 0 0 0;
#X connect 111 0 135 0;
#X connect 111 0 130 0;
#X connect 112 0 111 0;
#X connect 112 1 133 0;
#X connect 113 0 1 0;
#X connect 113 0 127 0;
#X connect 113 0 136 0;
#X connect 114 0 113 0;
#X connect 114 1 132 0;
#X connect 115 0 2 0;
#X connect 115 0 129 0;
#X connect 115 0 137 0;
#X connect 116 0 115 0;
#X connect 116 1 131 0;
#X connect 117 0 3 0;
#X connect 117 0 128 0;
#X connect 117 0 138 0;
#X connect 117 0 139 0;
#X connect 118 0 119 0;
#X connect 119 0 115 0;
#X connect 119 0 113 0;
#X connect 119 0 111 0;
#X connect 120 0 111 0;
#X connect 120 0 113 0;
#X connect 120 0 117 0;
#X connect 121 0 111 0;
#X connect 121 0 115 0;
#X connect 121 0 117 0;
#X connect 122 0 113 0;
#X connect 122 0 115 0;
#X connect 122 0 117 0;
#X connect 123 0 140 0;
#X connect 124 0 141 0;
#X connect 125 0 142 0;
#X connect 126 0 143 0;
#X connect 127 0 147 0;
#X connect 127 0 149 0;
#X connect 128 0 144 0;
#X connect 128 0 148 0;
#X connect 129 0 145 0;
#X connect 129 0 150 0;
#X connect 130 0 73 0;
#X connect 130 0 146 0;
#X connect 131 0 120 0;
#X connect 132 0 121 0;
#X connect 133 0 122 0;
#X connect 134 0 117 0;
#X connect 134 1 118 0;
#X connect 140 0 112 0;
#X connect 141 0 114 0;
#X connect 142 0 116 0;
#X connect 143 0 134 0;
#X connect 144 0 29 0;
#X connect 144 1 30 0;
#X connect 144 2 31 0;
#X connect 144 3 32 0;
#X connect 144 4 33 0;
#X connect 144 5 34 0;
#X connect 144 6 35 0;
#X connect 144 7 36 0;
#X connect 144 8 37 0;
#X connect 145 0 47 0;
#X connect 145 1 48 0;
#X connect 145 2 49 0;
#X connect 145 3 50 0;
#X connect 145 4 51 0;
#X connect 145 5 52 0;
#X connect 145 6 53 0;
#X connect 145 7 54 0;
#X connect 145 8 55 0;
#X connect 146 0 20 0;
#X connect 146 1 21 0;
#X connect 146 2 22 0;
#X connect 146 3 23 0;
#X connect 146 4 24 0;
#X connect 146 5 25 0;
#X connect 146 6 26 0;
#X connect 146 7 27 0;
#X connect 146 8 28 0;
#X connect 147 0 38 0;
#X connect 147 1 39 0;
#X connect 147 2 40 0;
#X connect 147 3 41 0;
#X connect 147 4 42 0;
#X connect 147 5 43 0;
#X connect 147 6 44 0;
#X connect 147 7 45 0;
#X connect 147 8 46 0;
#X connect 148 0 83 0;
#X connect 148 1 84 0;
#X connect 148 2 85 0;
#X connect 148 3 86 0;
#X connect 148 4 87 0;
#X connect 148 5 88 0;
#X connect 148 6 89 0;
#X connect 148 7 90 0;
#X connect 148 8 91 0;
#X connect 149 0 92 0;
#X connect 149 1 93 0;
#X connect 149 2 94 0;
#X connect 149 3 95 0;
#X connect 149 4 96 0;
#X connect 149 5 97 0;
#X connect 149 6 98 0;
#X connect 149 7 99 0;
#X connect 149 8 100 0;
#X connect 150 0 101 0;
#X connect 150 1 102 0;
#X connect 150 2 103 0;
#X connect 150 3 104 0;
#X connect 150 4 105 0;
#X connect 150 5 106 0;
#X connect 150 6 107 0;
#X connect 150 7 108 0;
#X connect 150 8 109 0;
#X coords 0 -1 1 1 90 50 1 100 100;
#X restore 244 102 pd RJ controlmatrix;
#X text 468 285 RIGHT;
#X obj 509 321 outlet;
#X obj 551 321 outlet;
#X obj 596 321 outlet;
#X obj 638 321 outlet;
#X obj 551 39 bjcright;
#X connect 0 0 37 3;
#X connect 1 0 37 2;
#X connect 2 0 37 0;
#X connect 3 0 37 1;
#X connect 4 0 14 0;
#X connect 4 0 31 0;
#X connect 5 0 9 0;
#X connect 5 0 29 0;
#X connect 6 0 8 0;
#X connect 6 0 30 0;
#X connect 7 0 10 0;
#X connect 7 0 28 0;
#X connect 8 0 41 0;
#X connect 9 0 42 0;
#X connect 10 0 43 0;
#X connect 14 0 44 0;
#X connect 15 0 11 0;
#X connect 16 0 12 0;
#X connect 17 0 13 0;
#X connect 18 0 15 0;
#X connect 18 1 16 0;
#X connect 25 0 17 0;
#X connect 26 0 27 0;
#X connect 27 0 18 0;
#X connect 27 1 25 0;
#X connect 32 0 39 0;
#X connect 33 0 39 3;
#X connect 34 0 39 1;
#X connect 35 0 39 2;
#X connect 45 1 2 0;
#X connect 45 2 1 0;
#X connect 45 3 0 0;
#X connect 45 4 3 0;
#X connect 45 5 32 0;
#X connect 45 6 35 0;
#X connect 45 7 33 0;
#X connect 45 8 34 0;
#X connect 45 9 6 0;
#X connect 45 10 5 0;
#X connect 45 11 7 0;
#X connect 45 12 4 0;
#X connect 45 13 26 0;
#X connect 45 14 26 1;
#X connect 45 15 26 2;
#X coords 0 -1 1 1 450 170 1 400 100;
