#N canvas 0 0 1028 734 10;
#X msg 169 192 close;
#X obj 121 338 route 0 1 2 3 4 5 6 7;
#N canvas 739 12 499 396 display 0;
#X obj 257 232 inlet;
#X obj 257 275 outlet;
#X obj 305 275 inlet;
#X obj 305 318 outlet;
#X obj 355 318 inlet;
#X obj 355 361 outlet;
#X obj 70 300 receive ARDUINO_TEST_RESET;
#X obj 257 253 mapping/resample 25;
#X obj 305 296 mapping/resample 25;
#X obj 355 339 mapping/resample 25;
#X connect 0 0 7 0;
#X connect 2 0 8 0;
#X connect 4 0 9 0;
#X connect 6 0 7 0;
#X connect 6 0 8 0;
#X connect 6 0 9 0;
#X connect 7 0 1 0;
#X connect 8 0 3 0;
#X connect 9 0 5 0;
#X restore 184 368 pd display values without pegging the CPU;
#X obj 570 324 route 0 1 2 3 4 5 6 7 8 9 10 11 12 13;
#X obj 601 346 tgl 15 0 empty ARDUINO_TEST_RESET 2 4 23 1 12 -99865
-1 -1 0 1;
#X obj 618 346 tgl 15 0 empty ARDUINO_TEST_RESET 3 4 23 1 12 -258113
-1 -1 0 1;
#X obj 635 346 tgl 15 0 empty ARDUINO_TEST_RESET 4 4 23 1 12 -258113
-1 -1 0 1;
#X obj 652 346 tgl 15 0 empty ARDUINO_TEST_RESET 5 4 23 1 12 -257985
-1 -1 0 1;
#X obj 669 346 tgl 15 0 empty ARDUINO_TEST_RESET 6 4 23 1 12 -257985
-1 -1 0 1;
#X obj 686 346 tgl 15 0 empty ARDUINO_TEST_RESET 7 4 23 1 12 -257985
-1 -1 0 1;
#X obj 703 346 tgl 15 0 empty ARDUINO_TEST_RESET 8 4 23 1 12 -257985
-1 -1 0 1;
#X obj 720 346 tgl 15 0 empty ARDUINO_TEST_RESET 9 4 23 1 12 -257985
-1 -1 0 1;
#X obj 737 346 tgl 15 0 empty ARDUINO_TEST_RESET 10 0 23 1 12 -99865
-1 -1 0 1;
#X obj 754 346 tgl 15 0 empty ARDUINO_TEST_RESET 11 0 23 1 12 -99865
-1 -1 0 1;
#X obj 771 346 tgl 15 0 empty ARDUINO_TEST_RESET 12 0 23 1 12 -258113
-1 -1 0 1;
#X obj 788 346 tgl 15 0 empty ARDUINO_TEST_RESET 13 0 23 1 12 -258113
-1 -1 0 1;
#X obj 567 346 tgl 15 0 empty ARDUINO_TEST_RESET 0 4 23 1 12 -99865
-1 -1 0 1;
#X obj 584 346 tgl 15 0 empty ARDUINO_TEST_RESET 1 4 23 1 12 -99865
-1 -1 0 1;
#X text 204 276 <-- argument sets port #;
#X msg -69 6 analogIns 0 1;
#X msg -68 25 analogIns 1 1;
#X msg -65 105 analogIns 5 1;
#X msg -64 125 analogIns 6 1;
#X msg -63 146 analogIns 7 1;
#X text 231 468 Accelerometer;
#X text 31 473 Keys 1234;
#X obj 121 315 route analog digital;
#X msg -71 411 pinMode 13 input;
#X msg -72 391 pinMode 12 input;
#X msg -70 233 pinMode 4 input;
#X msg -70 214 pinMode 3 input;
#X msg -71 371 pinMode 11 pwm;
#X msg -72 353 pinMode 10 pwm;
#X obj 335 492 outlet;
#X obj -17 491 outlet;
#X obj 25 491 outlet;
#X obj 67 491 outlet;
#X obj 111 491 outlet;
#X obj 203 489 outlet;
#X obj 246 488 outlet;
#X obj 288 488 outlet;
#X obj 123 169 loadbang;
#X obj 380 491 outlet;
#X obj 691 491 outlet;
#X obj 736 491 outlet;
#X msg -67 64 analogIns 3 1;
#X msg -65 84 analogIns 4 1;
#X msg -70 252 pinMode 5 input;
#X msg -70 271 pinMode 6 input;
#X msg -71 291 pinMode 7 input;
#X msg -71 312 pinMode 8 input;
#X msg -72 332 pinMode 9 input;
#X obj 446 493 outlet;
#X obj 491 492 outlet;
#X obj 535 492 outlet;
#X obj 580 491 outlet;
#X obj 623 491 outlet;
#X text 352 517 OCTAVE UP;
#X text 708 523 OCTAVE DOWN;
#X text 509 520 5-WAY JOYTOGGLE;
#X msg -67 194 pinMode 2 pwm;
#X obj 814 492 outlet;
#X obj 856 490 outlet;
#X obj 901 490 outlet;
#X obj 273 115 hsl 150 17 0 1 0 0 empty empty PWM_control_(0-1) -2
-6 1 10 -260818 -1 -1 8940 1;
#X text 275 163 disable PWM:;
#X obj 438 116 hsl 150 17 0 1 0 0 empty empty PWM_control_(0-1) -2
-6 1 10 -260818 -1 -1 5960 1;
#X text 443 163 disable PWM:;
#X obj 600 116 hsl 150 17 0 1 0 0 empty empty PWM_control_(0-1) -2
-6 1 10 -260818 -1 -1 14751 1;
#X text 605 163 disable PWM:;
#X text 438 84 PIN10:;
#X text 597 83 PIN11:;
#X msg 435 137 pwm 10 \$1;
#X msg 597 137 pwm 11 \$1;
#X msg 445 182 pwm 10 0;
#X msg 607 182 pwm 11 0;
#X msg 267 137 pwm 2 \$1;
#X msg 275 181 pwm 2 0;
#X text 267 81 PIN2:;
#X msg -67 44 analogIns 2 1;
#X obj 155 491 outlet;
#X msg 188 11 0.6;
#X msg 223 11 0.4;
#X msg 255 10 0.99;
#X obj 478 77 r r;
#X obj 636 78 r g;
#X obj 305 79 r b;
#X obj 370 56 r lights off;
#X msg 123 193 open 4;
#X obj 121 292 arduino 4;
#X text 829 512 RGB LED PWM OUT;
#X text 909 16 comment;
#X floatatom 260 537 5 0 0 0 - - -;
#X connect 0 0 89 0;
#X connect 1 0 34 0;
#X connect 1 1 35 0;
#X connect 1 2 80 0;
#X connect 1 3 36 0;
#X connect 1 4 37 0;
#X connect 1 5 2 2;
#X connect 1 6 2 0;
#X connect 1 7 2 1;
#X connect 2 0 38 0;
#X connect 2 1 40 0;
#X connect 2 1 92 0;
#X connect 2 2 39 0;
#X connect 3 0 16 0;
#X connect 3 1 17 0;
#X connect 3 2 4 0;
#X connect 3 3 5 0;
#X connect 3 3 33 0;
#X connect 3 4 6 0;
#X connect 3 4 42 0;
#X connect 3 5 7 0;
#X connect 3 6 8 0;
#X connect 3 7 9 0;
#X connect 3 8 10 0;
#X connect 3 9 11 0;
#X connect 3 10 12 0;
#X connect 3 11 13 0;
#X connect 3 12 14 0;
#X connect 3 12 43 0;
#X connect 3 13 15 0;
#X connect 3 13 44 0;
#X connect 4 0 61 0;
#X connect 7 0 52 0;
#X connect 8 0 53 0;
#X connect 9 0 54 0;
#X connect 10 0 55 0;
#X connect 11 0 56 0;
#X connect 12 0 62 0;
#X connect 13 0 63 0;
#X connect 19 0 89 0;
#X connect 20 0 89 0;
#X connect 21 0 89 0;
#X connect 22 0 89 0;
#X connect 23 0 89 0;
#X connect 26 0 1 0;
#X connect 26 1 3 0;
#X connect 27 0 89 0;
#X connect 28 0 89 0;
#X connect 29 0 89 0;
#X connect 30 0 89 0;
#X connect 31 0 89 0;
#X connect 32 0 89 0;
#X connect 41 0 21 0;
#X connect 41 0 22 0;
#X connect 41 0 23 0;
#X connect 41 0 19 0;
#X connect 41 0 20 0;
#X connect 41 0 45 0;
#X connect 41 0 46 0;
#X connect 41 0 88 0;
#X connect 41 0 29 0;
#X connect 41 0 28 0;
#X connect 41 0 27 0;
#X connect 41 0 30 0;
#X connect 41 0 47 0;
#X connect 41 0 48 0;
#X connect 41 0 49 0;
#X connect 41 0 50 0;
#X connect 41 0 51 0;
#X connect 41 0 60 0;
#X connect 41 0 31 0;
#X connect 41 0 32 0;
#X connect 41 0 79 0;
#X connect 41 0 81 0;
#X connect 41 0 82 0;
#X connect 41 0 83 0;
#X connect 45 0 89 0;
#X connect 46 0 89 0;
#X connect 47 0 89 0;
#X connect 48 0 89 0;
#X connect 49 0 89 0;
#X connect 50 0 89 0;
#X connect 51 0 89 0;
#X connect 60 0 89 0;
#X connect 64 0 76 0;
#X connect 66 0 72 0;
#X connect 68 0 73 0;
#X connect 72 0 89 0;
#X connect 73 0 89 0;
#X connect 74 0 89 0;
#X connect 75 0 89 0;
#X connect 76 0 89 0;
#X connect 77 0 89 0;
#X connect 79 0 89 0;
#X connect 81 0 64 0;
#X connect 82 0 66 0;
#X connect 83 0 68 0;
#X connect 84 0 66 0;
#X connect 85 0 68 0;
#X connect 86 0 64 0;
#X connect 87 0 77 0;
#X connect 87 0 74 0;
#X connect 87 0 75 0;
#X connect 88 0 89 0;
#X connect 89 0 26 0;
