#N canvas 77 145 947 623 10;
#X msg 217 -6 close;
#N canvas 260 108 499 396 display 0;
#X obj 6 7 inlet;
#X obj 6 50 outlet;
#X obj 54 50 inlet;
#X obj 54 93 outlet;
#X obj 60 290 receive ARDUINO_TEST_RESET;
#X obj 19 29 mapping/resample 100;
#X obj 54 71 mapping/resample 2;
#X connect 0 0 5 0;
#X connect 2 0 6 0;
#X connect 4 0 5 0;
#X connect 4 0 6 0;
#X connect 5 0 1 0;
#X connect 6 0 3 0;
#X restore 177 249 pd display values without pegging the CPU;
#X obj 172 122 route 0 1;
#X obj 172 101 route analog;
#X msg 287 73 analogIns 1 1;
#X obj 172 144 outlet;
#X obj 217 143 outlet;
#X obj 172 -181 loadbang;
#X msg 287 54 analogIns 0 1;
#X obj 297 153 tgl 15 0 empty empty empty 0 -6 0 8 -262144 -1 -1 0
1;
#X obj 428 94 tgl 15 0 empty empty empty 0 -6 0 8 -262144 -1 -1 0 1
;
#X msg 428 112 digital 2 \$1;
#X obj 297 108 r breath;
#X obj 428 71 r lip;
#X obj 313 132 invert;
#X obj 271 -104 hsl 150 17 0 1 0 0 empty empty PWM_control_(0-1) -2
-6 1 10 -260818 -1 -1 8940 1;
#X text 274 -58 disable PWM:;
#X obj 441 -107 hsl 150 17 0 1 0 0 empty empty PWM_control_(0-1) -2
-6 1 10 -260818 -1 -1 5960 1;
#X text 442 -58 disable PWM:;
#X obj 599 -105 hsl 150 17 0 1 0 0 empty empty PWM_control_(0-1) -2
-6 1 10 -260818 -1 -1 14751 1;
#X text 604 -58 disable PWM:;
#X obj 468 -137 r r;
#X obj 633 -139 r g;
#X obj 298 -141 r b;
#X obj 458 -19 r lights off;
#X msg 438 -81 pwm 5 \$1;
#X msg 596 -84 pwm 6 \$1;
#X msg 444 -39 pwm 5 0;
#X msg 606 -39 pwm 6 0;
#X msg 501 -82 pinMode 5 pwm;
#X msg 661 -85 pinMode 6 pwm;
#X msg 328 -79 pinMode 3 pwm;
#X msg 268 -79 pwm 3 \$1;
#X msg 274 -41 pwm 3 0;
#X floatatom 316 152 5 0 0 0 - - -;
#X msg 297 172 pwm 5 \$1;
#X text 596 -138 PIN6:;
#X text 437 -137 PIN5:;
#X text 266 -140 PIN3:;
#X msg 298 -179 0.6;
#X msg 333 -179 0.4;
#X msg 365 -180 0.99;
#X msg 172 -6 open 3;
#X obj 172 80 arduino 3;
#X text 352 146 should blink the light on each breath input but is
a bit slow;
#X text 245 81 comment;
#X text 429 -172 initial rgb light color;
#X connect 0 0 43 0;
#X connect 2 0 5 0;
#X connect 2 1 6 0;
#X connect 3 0 2 0;
#X connect 4 0 43 0;
#X connect 7 0 42 0;
#X connect 7 0 4 0;
#X connect 7 0 8 0;
#X connect 7 0 31 0;
#X connect 7 0 29 0;
#X connect 7 0 30 0;
#X connect 7 0 39 0;
#X connect 7 0 40 0;
#X connect 7 0 41 0;
#X connect 8 0 43 0;
#X connect 9 0 35 0;
#X connect 9 0 34 0;
#X connect 10 0 11 0;
#X connect 12 0 14 0;
#X connect 13 0 10 0;
#X connect 14 0 9 0;
#X connect 15 0 32 0;
#X connect 17 0 25 0;
#X connect 19 0 26 0;
#X connect 21 0 17 0;
#X connect 22 0 19 0;
#X connect 23 0 15 0;
#X connect 24 0 33 0;
#X connect 24 0 27 0;
#X connect 24 0 28 0;
#X connect 25 0 43 0;
#X connect 26 0 43 0;
#X connect 27 0 43 0;
#X connect 28 0 43 0;
#X connect 29 0 43 0;
#X connect 30 0 43 0;
#X connect 31 0 43 0;
#X connect 32 0 43 0;
#X connect 33 0 43 0;
#X connect 35 0 43 0;
#X connect 39 0 15 0;
#X connect 40 0 17 0;
#X connect 41 0 19 0;
#X connect 42 0 43 0;
#X connect 43 0 3 0;
