#N canvas 685 302 450 345 10;
#N canvas 175 0 968 739 xlrmtr 0;
#X floatatom 674 507 5 0 0 0 - - -;
#X obj 707 586 t b b;
#X obj 697 631 f;
#X obj 701 661 + 1;
#X obj 482 403 tgl 15 0 empty empty empty 17 7 0 10 -262144 -1 -1 0
1;
#X obj 662 687 * 127;
#X floatatom 659 603 5 0 0 0 - - -;
#X msg 731 615 1;
#X obj 482 422 bng 15 250 50 0 empty empty empty 17 7 0 10 -262144
-1 -1;
#X obj 32 689 outlet;
#X obj 325 692 outlet;
#X obj 589 692 outlet;
#X obj 706 686 outlet;
#X text 255 691 Y;
#X text 525 691 Z;
#X text 669 701 Z flip switch;
#X text -48 690 X;
#X obj 38 399 spigot;
#X floatatom 74 440 5 0 0 0 - - -;
#X obj -72 388 spigot;
#X obj 712 485 moses 126;
#X obj 712 536 < 126;
#X obj 709 507 - 126;
#X floatatom 96 507 5 0 0 0 - - -;
#X obj 129 586 t b b;
#X obj 119 631 f;
#X obj 123 661 + 1;
#X obj 345 404 tgl 15 0 empty empty empty 17 7 0 10 -262144 -1 -1 0
1;
#X obj 84 687 * 127;
#X floatatom 81 603 5 0 0 0 - - -;
#X msg 153 615 1;
#X obj 346 421 bng 15 250 50 0 empty empty empty 17 7 0 10 -262144
-1 -1;
#X obj 134 485 moses 126;
#X obj 134 536 < 126;
#X obj 131 507 - 126;
#X floatatom 387 511 5 0 0 0 - - -;
#X obj 420 590 t b b;
#X obj 410 635 f;
#X obj 414 665 + 1;
#X obj 418 403 tgl 15 0 empty empty empty 17 7 0 10 -262144 -1 -1 0
1;
#X obj 375 691 * 127;
#X floatatom 372 607 5 0 0 0 - - -;
#X msg 444 619 1;
#X obj 418 421 bng 15 250 50 0 empty empty empty 17 7 0 10 -262144
-1 -1;
#X obj 425 489 moses 126;
#X obj 425 540 < 126;
#X obj 422 511 - 126;
#X obj 136 563 delay 150;
#X obj 427 567 delay 150;
#X obj 714 563 delay 150;
#X obj 432 692 outlet;
#X obj 149 690 outlet;
#X text 112 705 x flip switch;
#X text 398 707 y flip switch;
#X floatatom -58 561 5 0 0 0 - - -;
#X obj -58 583 - 1;
#X floatatom -58 606 5 0 0 0 - - -;
#X obj -58 533 clip 2 1;
#X floatatom -3 622 5 0 0 0 - - -;
#X obj -3 574 t b b;
#X obj -3 597 f;
#X obj 302 420 bng 15 250 50 0 empty empty empty 17 7 0 10 -262144
-1 -1;
#X obj -3 533 sel 1;
#X obj -3 554 delay 100;
#X obj 302 403 tgl 15 0 empty empty empty 17 7 0 10 -262144 -1 -1 0
1;
#X obj -32 669 * 127;
#X obj -32 691 outlet;
#X floatatom 246 560 5 0 0 0 - - -;
#X obj 246 582 - 1;
#X floatatom 246 605 5 0 0 0 - - -;
#X obj 246 531 clip 2 1;
#X floatatom 301 621 5 0 0 0 - - -;
#X obj 301 573 t b b;
#X obj 301 596 f;
#X obj 368 422 bng 15 250 50 0 empty empty empty 17 7 0 10 -262144
-1 -1;
#X obj 301 532 sel 1;
#X obj 301 553 delay 100;
#X obj 368 404 tgl 15 0 empty empty empty 17 7 0 10 -262144 -1 -1 0
1;
#X obj 272 668 * 127;
#X obj 272 690 outlet;
#X floatatom 516 561 5 0 0 0 - - -;
#X obj 516 583 - 1;
#X floatatom 516 606 5 0 0 0 - - -;
#X obj 516 532 clip 2 1;
#X floatatom 571 622 5 0 0 0 - - -;
#X obj 571 574 t b b;
#X obj 571 597 f;
#X obj 439 422 bng 15 250 50 0 empty empty empty 17 7 0 10 -262144
-1 -1;
#X obj 571 533 sel 1;
#X obj 571 554 delay 100;
#X obj 438 404 tgl 15 0 empty empty empty 17 7 0 10 -262144 -1 -1 0
1;
#X obj 542 669 * 127;
#X obj 542 691 outlet;
#X text -58 341 right hand joystick xlrmtr triggers;
#X text 546 351 sets and resets pitch to center;
#X obj 517 388 s led40;
#X obj 516 482 s led45;
#X obj 516 463 s led44;
#X obj 517 444 s led43;
#X obj 517 426 s led42;
#X obj 517 407 s led41;
#N canvas 0 0 303 384 rangex 0;
#X obj 106 72 clip 36 96;
#X obj 107 124 - 36;
#X floatatom 108 151 5 0 0 0 - - -;
#X obj 109 196 int;
#X obj 108 176 * 2.2;
#X obj 109 247 clip 0 127;
#X floatatom 112 280 5 0 0 0 - - -;
#X text 146 100 range multiplier;
#X obj 107 40 inlet;
#X obj 115 317 outlet;
#X connect 0 0 1 0;
#X connect 1 0 2 0;
#X connect 2 0 4 0;
#X connect 3 0 5 0;
#X connect 4 0 3 0;
#X connect 5 0 6 0;
#X connect 6 0 9 0;
#X connect 8 0 0 0;
#X restore 552 171 pd rangex;
#N canvas 0 0 303 384 rangex 0;
#X obj 106 72 clip 36 96;
#X floatatom 107 102 5 0 0 0 - - -;
#X obj 107 124 - 36;
#X floatatom 108 151 5 0 0 0 - - -;
#X floatatom 109 224 5 0 0 0 - - -;
#X obj 109 196 int;
#X obj 108 176 * 2.2;
#X obj 109 247 clip 0 127;
#X floatatom 112 280 5 0 0 0 - - -;
#X text 146 100 range multiplier;
#X obj 107 40 inlet;
#X obj 115 317 outlet;
#X connect 0 0 1 0;
#X connect 1 0 2 0;
#X connect 2 0 3 0;
#X connect 3 0 6 0;
#X connect 4 0 7 0;
#X connect 5 0 4 0;
#X connect 6 0 5 0;
#X connect 7 0 8 0;
#X connect 8 0 11 0;
#X connect 10 0 0 0;
#X restore 30 650 pd rangex;
#N canvas 0 0 303 384 rangex 0;
#X obj 106 72 clip 36 96;
#X floatatom 107 102 5 0 0 0 - - -;
#X obj 107 124 - 36;
#X floatatom 108 151 5 0 0 0 - - -;
#X floatatom 109 224 5 0 0 0 - - -;
#X obj 109 196 int;
#X obj 108 176 * 2.2;
#X obj 109 247 clip 0 127;
#X floatatom 112 280 5 0 0 0 - - -;
#X text 146 100 range multiplier;
#X obj 107 40 inlet;
#X obj 115 317 outlet;
#X connect 0 0 1 0;
#X connect 1 0 2 0;
#X connect 2 0 3 0;
#X connect 3 0 6 0;
#X connect 4 0 7 0;
#X connect 5 0 4 0;
#X connect 6 0 5 0;
#X connect 7 0 8 0;
#X connect 8 0 11 0;
#X connect 10 0 0 0;
#X restore 314 646 pd rangex;
#X obj 83 361 inlet;
#X floatatom 40 440 5 0 0 0 - - -;
#X obj 183 398 spigot;
#X floatatom 109 440 5 0 0 0 - - -;
#X floatatom 8 284 5 0 0 0 - - -;
#X floatatom 168 284 5 0 0 0 - - -;
#X floatatom 309 291 5 0 0 0 - - -;
#X text 4 311 ctl20;
#X text 163 314 ctl21;
#X text 302 317 ctl22;
#X text 144 301 Up/down tilt;
#X text -3 301 L/R Tilt;
#X text 299 306 top/bttm;
#X obj 10 257 r xaxis;
#X obj 152 257 r yaxis;
#X obj 288 259 r zaxis;
#X obj 144 284 int;
#X obj -15 284 int;
#X obj 287 290 int;
#X floatatom 359 277 5 0 0 0 - - -;
#X obj 336 277 int;
#X obj 336 259 average 10;
#X obj 337 294 change;
#X floatatom 377 295 5 0 0 0 - - -;
#X floatatom 223 275 5 0 0 0 - - -;
#X obj 200 275 int;
#X obj 200 257 average 10;
#X obj 201 292 change;
#X floatatom 241 293 5 0 0 0 - - -;
#X floatatom 85 272 5 0 0 0 - - -;
#X obj 62 272 int;
#X obj 62 254 average 10;
#X obj 63 289 change;
#X floatatom 103 290 5 0 0 0 - - -;
#X connect 0 0 11 0;
#X connect 1 0 2 0;
#X connect 1 1 7 0;
#X connect 2 0 3 0;
#X connect 3 0 8 0;
#X connect 4 0 5 0;
#X connect 4 0 97 0;
#X connect 5 0 12 0;
#X connect 7 0 2 1;
#X connect 8 0 4 0;
#X connect 17 0 18 0;
#X connect 17 0 103 0;
#X connect 17 0 44 0;
#X connect 17 0 70 0;
#X connect 19 0 102 0;
#X connect 19 0 57 0;
#X connect 19 0 32 0;
#X connect 19 0 105 0;
#X connect 20 0 0 0;
#X connect 20 1 21 0;
#X connect 21 0 6 0;
#X connect 21 0 49 0;
#X connect 22 0 21 0;
#X connect 24 0 25 0;
#X connect 24 1 30 0;
#X connect 25 0 26 0;
#X connect 26 0 31 0;
#X connect 27 0 28 0;
#X connect 27 0 98 0;
#X connect 28 0 51 0;
#X connect 30 0 25 1;
#X connect 31 0 27 0;
#X connect 32 0 23 0;
#X connect 32 1 33 0;
#X connect 33 0 29 0;
#X connect 33 0 47 0;
#X connect 34 0 33 0;
#X connect 36 0 37 0;
#X connect 36 1 42 0;
#X connect 37 0 38 0;
#X connect 38 0 43 0;
#X connect 39 0 40 0;
#X connect 39 0 100 0;
#X connect 40 0 50 0;
#X connect 42 0 37 1;
#X connect 43 0 39 0;
#X connect 44 0 35 0;
#X connect 44 1 45 0;
#X connect 45 0 41 0;
#X connect 45 0 48 0;
#X connect 46 0 45 0;
#X connect 47 0 24 0;
#X connect 48 0 36 0;
#X connect 49 0 1 0;
#X connect 54 0 55 0;
#X connect 55 0 56 0;
#X connect 56 0 62 0;
#X connect 57 0 54 0;
#X connect 58 0 61 0;
#X connect 59 0 60 0;
#X connect 60 0 58 0;
#X connect 61 0 64 0;
#X connect 62 0 63 0;
#X connect 63 0 59 0;
#X connect 64 0 65 0;
#X connect 64 0 95 0;
#X connect 65 0 66 0;
#X connect 67 0 68 0;
#X connect 68 0 69 0;
#X connect 69 0 75 0;
#X connect 70 0 67 0;
#X connect 71 0 74 0;
#X connect 72 0 73 0;
#X connect 73 0 71 0;
#X connect 74 0 77 0;
#X connect 75 0 76 0;
#X connect 76 0 72 0;
#X connect 77 0 78 0;
#X connect 77 0 99 0;
#X connect 78 0 79 0;
#X connect 80 0 81 0;
#X connect 81 0 82 0;
#X connect 82 0 88 0;
#X connect 83 0 80 0;
#X connect 84 0 87 0;
#X connect 85 0 86 0;
#X connect 86 0 84 0;
#X connect 87 0 90 0;
#X connect 88 0 89 0;
#X connect 89 0 85 0;
#X connect 90 0 91 0;
#X connect 90 0 96 0;
#X connect 91 0 92 0;
#X connect 102 0 9 0;
#X connect 103 0 10 0;
#X connect 104 0 17 1;
#X connect 104 0 19 1;
#X connect 104 0 106 1;
#X connect 106 0 83 0;
#X connect 106 0 20 0;
#X connect 106 0 107 0;
#X connect 117 0 121 0;
#X connect 118 0 120 0;
#X connect 119 0 122 0;
#X connect 120 0 109 0;
#X connect 120 0 130 0;
#X connect 121 0 108 0;
#X connect 121 0 135 0;
#X connect 122 0 110 0;
#X connect 122 0 125 0;
#X connect 124 0 123 0;
#X connect 124 0 126 0;
#X connect 125 0 124 0;
#X connect 126 0 127 0;
#X connect 126 0 106 0;
#X connect 129 0 128 0;
#X connect 129 0 131 0;
#X connect 130 0 129 0;
#X connect 131 0 132 0;
#X connect 131 0 17 0;
#X connect 134 0 133 0;
#X connect 134 0 136 0;
#X connect 135 0 134 0;
#X connect 136 0 137 0;
#X connect 136 0 19 0;
#X coords 0 -1 1 1 200 40 2 300 400;
#X restore 111 117 pd xlrmtr l ctrl;
#X text 110 99 |---x---| |---y----| |---z---|;
#X obj 109 79 inlet;
#X obj 38 169 outlet;
#X obj 80 170 outlet;
#X obj 122 170 outlet;
#X obj 162 169 outlet;
#X obj 205 169 outlet;
#X obj 247 169 outlet;
#X obj 288 169 outlet;
#X obj 331 169 outlet;
#X obj 374 168 outlet;
#X connect 0 0 3 0;
#X connect 0 1 4 0;
#X connect 0 2 5 0;
#X connect 0 3 6 0;
#X connect 0 4 7 0;
#X connect 0 5 8 0;
#X connect 0 6 9 0;
#X connect 0 7 10 0;
#X connect 0 8 11 0;
#X connect 2 0 0 0;
#X coords 0 -1 1 1 220 60 1 100 100;
